<?xml version="1.0" encoding="UTF-8" standalone="no"?>
<!-- Created with Inkscape (http://www.inkscape.org/) -->

<svg
   xmlns:dc="http://purl.org/dc/elements/1.1/"
   xmlns:cc="http://creativecommons.org/ns#"
   xmlns:rdf="http://www.w3.org/1999/02/22-rdf-syntax-ns#"
   xmlns:svg="http://www.w3.org/2000/svg"
   xmlns="http://www.w3.org/2000/svg"
   xmlns:xlink="http://www.w3.org/1999/xlink"
   xmlns:sodipodi="http://sodipodi.sourceforge.net/DTD/sodipodi-0.dtd"
   xmlns:inkscape="http://www.inkscape.org/namespaces/inkscape"
   width="1920"
   height="1080"
   id="svg2"
   version="1.1"
   inkscape:version="0.48.4 r9939"
   sodipodi:docname="temp.svg"
   inkscape:export-filename="/home/andrew/open-emoticon.png"
   inkscape:export-xdpi="90"
   inkscape:export-ydpi="90">
  <defs
     id="defs4">
    <linearGradient
       id="linearGradient43193">
      <stop
         style="stop-color:#00ffff;stop-opacity:1;"
         offset="0"
         id="stop43195" />
      <stop
         id="stop43203"
         offset="0.5"
         style="stop-color:#00ff00;stop-opacity:1;" />
      <stop
         style="stop-color:#00ff00;stop-opacity:1;"
         offset="1"
         id="stop43197" />
    </linearGradient>
    <linearGradient
       inkscape:collect="always"
       xlink:href="#linearGradient43193-7"
       id="linearGradient43201-1"
       x1="820"
       y1="964.36218"
       x2="2020"
       y2="964.36218"
       gradientUnits="userSpaceOnUse" />
    <linearGradient
       id="linearGradient43193-7">
      <stop
         style="stop-color:#00ffff;stop-opacity:1;"
         offset="0"
         id="stop43195-5" />
      <stop
         id="stop43203-2"
         offset="0.5"
         style="stop-color:#00ff00;stop-opacity:1;" />
      <stop
         style="stop-color:#00ff00;stop-opacity:1;"
         offset="1"
         id="stop43197-3" />
    </linearGradient>
    <linearGradient
       inkscape:collect="always"
       xlink:href="#linearGradient43193-6"
       id="linearGradient43201-8"
       x1="820"
       y1="964.36218"
       x2="2020"
       y2="964.36218"
       gradientUnits="userSpaceOnUse" />
    <linearGradient
       id="linearGradient43193-6">
      <stop
         style="stop-color:#00ffff;stop-opacity:1;"
         offset="0"
         id="stop43195-9" />
      <stop
         id="stop43203-4"
         offset="0.5"
         style="stop-color:#0000ff;stop-opacity:1;" />
      <stop
         style="stop-color:#0000ff;stop-opacity:1;"
         offset="1"
         id="stop43197-39" />
    </linearGradient>
  </defs>
  <sodipodi:namedview
     id="base"
     pagecolor="#ffffff"
     bordercolor="#666666"
     borderopacity="1.0"
     inkscape:pageopacity="0.0"
     inkscape:pageshadow="2"
     inkscape:zoom="0.39556777"
     inkscape:cx="601.12456"
     inkscape:cy="360.64259"
     inkscape:document-units="px"
     inkscape:current-layer="layer1"
     showgrid="true"
     inkscape:window-width="1362"
     inkscape:window-height="729"
     inkscape:window-x="0"
     inkscape:window-y="18"
     inkscape:window-maximized="0"
     showguides="true"
     inkscape:guide-bbox="true">
    <inkscape:grid
       type="xygrid"
       id="grid2985"
       empspacing="32"
       visible="false"
       enabled="true"
       snapvisiblegridlinesonly="true" />
    <inkscape:grid
       type="xygrid"
       id="grid3765"
       empspacing="4"
       visible="false"
       enabled="true"
       snapvisiblegridlinesonly="true" />
  </sodipodi:namedview>
  <metadata
     id="metadata7">
    <rdf:RDF>
      <cc:Work
         rdf:about="">
        <dc:format>image/svg+xml</dc:format>
        <dc:type
           rdf:resource="http://purl.org/dc/dcmitype/StillImage" />
        <dc:title></dc:title>
      </cc:Work>
    </rdf:RDF>
  </metadata>
  <g
     inkscape:label="Layer 1"
     inkscape:groupmode="layer"
     id="layer1"
     transform="translate(0,27.6378)">
    <rect
       style="opacity:1;fill:#ffffc1;fill-opacity:1;stroke:none"
       id="rect43645"
       width="2624"
       height="1600"
       x="-256"
       y="-200"
       transform="translate(0,-27.6378)" />
    <g
       id="g43611"
       transform="matrix(0.96592583,0.25881905,-0.25881905,0.96592583,-2391.3529,-754.06495)"
       style="opacity:0.3">
      <text
         xml:space="preserve"
         style="font-size:79.28436279000000297px;font-style:normal;font-weight:normal;line-height:125%;letter-spacing:0px;word-spacing:0px;fill:#000000;fill-opacity:1;stroke:none;font-family:Sans"
         x="2304"
         y="-227.6378"
         id="text30126-9-4-3"
         sodipodi:linespacing="125%"><tspan
           sodipodi:role="line"
           id="tspan30128-9-2-9"
           x="2304"
           y="-227.6378">😀😁😂😃😄😅😆😇😈😉😊😋😌😍😎😏</tspan><tspan
           id="tspan43493"
           sodipodi:role="line"
           x="2304"
           y="-128.53235">😐😑😒😓😔😕😖😗😘😙😚😛😜😝😞😟</tspan><tspan
           id="tspan43495"
           sodipodi:role="line"
           x="2304"
           y="-29.426895">😠😡😢😣😥😦😧😨😩😪😫😭😮😯😰😜</tspan><tspan
           id="tspan43497"
           sodipodi:role="line"
           x="2304"
           y="69.678558">😲😳😵😶😷😐😑😒😓😔😕😖😗😘😙😚</tspan><tspan
           id="tspan43499"
           sodipodi:role="line"
           x="2304"
           y="168.78401">😛😜😝😞😟😀😁😂😃😄😅😆😇😈😉😊</tspan><tspan
           id="tspan43501"
           sodipodi:role="line"
           x="2304"
           y="267.88947">😋😌😍😎😏😲😳😵😶😷😐😑😒😓😔😕</tspan><tspan
           id="tspan43505"
           sodipodi:role="line"
           x="2304"
           y="366.99493">😖😗😘😙😚😠😡😢😣😥😦😧😨😩😪😫</tspan></text>
      <text
         xml:space="preserve"
         style="font-size:79.28436279000000297px;font-style:normal;font-weight:normal;line-height:125%;letter-spacing:0px;word-spacing:0px;fill:#000000;fill-opacity:1;stroke:none;font-family:Sans"
         x="3634"
         y="-327.63779"
         id="text30126-9-4-3-9"
         sodipodi:linespacing="125%"><tspan
           sodipodi:role="line"
           id="tspan30128-9-2-9-5"
           x="3634"
           y="-327.63779">😀😁😂😃😄😅😆😇😈😉😊😋😌😍😎😏</tspan><tspan
           id="tspan43493-9"
           sodipodi:role="line"
           x="3634"
           y="-228.53233">😐😑😒😓😔😕😖😗😘😙😚😛😜😝😞😟</tspan><tspan
           id="tspan43495-6"
           sodipodi:role="line"
           x="3634"
           y="-129.42688">😠😡😢😣😥😦😧😨😩😪😫😭😮😯😰😜</tspan><tspan
           id="tspan43497-7"
           sodipodi:role="line"
           x="3634"
           y="-30.321426">😲😳😵😶😷😐😑😒😓😔😕😖😗😘😙😚</tspan><tspan
           id="tspan43499-2"
           sodipodi:role="line"
           x="3634"
           y="68.784027">😛😜😝😞😟😀😁😂😃😄😅😆😇😈😉😊</tspan><tspan
           id="tspan43501-6"
           sodipodi:role="line"
           x="3634"
           y="167.88948">😋😌😍😎😏😲😳😵😶😷😐😑😒😓😔😕</tspan><tspan
           id="tspan43505-5"
           sodipodi:role="line"
           x="3634"
           y="266.99493">😖😗😘😙😚😠😡😢😣😥😦😧😨😩😪😫</tspan></text>
      <text
         xml:space="preserve"
         style="font-size:79.28436279000000297px;font-style:normal;font-weight:normal;line-height:125%;letter-spacing:0px;word-spacing:0px;fill:#000000;fill-opacity:1;stroke:none;font-family:Sans"
         x="2304"
         y="466.36218"
         id="text30126-9-4-3-3"
         sodipodi:linespacing="125%"><tspan
           sodipodi:role="line"
           id="tspan30128-9-2-9-6"
           x="2304"
           y="466.36218">😀😁😂😃😄😅😆😇😈😉😊😋😌😍😎😏</tspan><tspan
           id="tspan43493-93"
           sodipodi:role="line"
           x="2304"
           y="565.46765">😐😑😒😓😔😕😖😗😘😙😚😛😜😝😞😟</tspan><tspan
           id="tspan43495-0"
           sodipodi:role="line"
           x="2304"
           y="664.57312">😠😡😢😣😥😦😧😨😩😪😫😭😮😯😰😜</tspan><tspan
           id="tspan43497-8"
           sodipodi:role="line"
           x="2304"
           y="763.67853">😲😳😵😶😷😐😑😒😓😔😕😖😗😘😙😚</tspan><tspan
           id="tspan43499-4"
           sodipodi:role="line"
           x="2304"
           y="862.784">😛😜😝😞😟😀😁😂😃😄😅😆😇😈😉😊</tspan><tspan
           id="tspan43501-8"
           sodipodi:role="line"
           x="2304"
           y="961.88947">😋😌😍😎😏😲😳😵😶😷😐😑😒😓😔😕</tspan><tspan
           id="tspan43505-4"
           sodipodi:role="line"
           x="2304"
           y="1060.9949">😖😗😘😙😚😠😡😢😣😥😦😧😨😩😪😫</tspan></text>
      <text
         xml:space="preserve"
         style="font-size:79.28436279000000297px;font-style:normal;font-weight:normal;line-height:125%;letter-spacing:0px;word-spacing:0px;fill:#000000;fill-opacity:1;stroke:none;font-family:Sans"
         x="3634"
         y="366.36221"
         id="text30126-9-4-3-9-5"
         sodipodi:linespacing="125%"><tspan
           sodipodi:role="line"
           id="tspan30128-9-2-9-5-4"
           x="3634"
           y="366.36221">😀😁😂😃😄😅😆😇😈😉😊😋😌😍😎😏</tspan><tspan
           id="tspan43493-9-9"
           sodipodi:role="line"
           x="3634"
           y="465.46765">😐😑😒😓😔😕😖😗😘😙😚😛😜😝😞😟</tspan><tspan
           id="tspan43495-6-4"
           sodipodi:role="line"
           x="3634"
           y="564.57312">😠😡😢😣😥😦😧😨😩😪😫😭😮😯😰😜</tspan><tspan
           id="tspan43497-7-8"
           sodipodi:role="line"
           x="3634"
           y="663.67859">😲😳😵😶😷😐😑😒😓😔😕😖😗😘😙😚</tspan><tspan
           id="tspan43499-2-3"
           sodipodi:role="line"
           x="3634"
           y="762.78406">😛😜😝😞😟😀😁😂😃😄😅😆😇😈😉😊</tspan><tspan
           id="tspan43501-6-9"
           sodipodi:role="line"
           x="3634"
           y="861.88947">😋😌😍😎😏😲😳😵😶😷😐😑😒😓😔😕</tspan><tspan
           id="tspan43505-5-7"
           sodipodi:role="line"
           x="3634"
           y="960.99493">😖😗😘😙😚😠😡😢😣😥😦😧😨😩😪😫</tspan></text>
    </g>
    <rect
       style="fill:#0000ff;fill-opacity:1;stroke:none"
       id="rect2987"
       width="1920"
       height="1088"
       x="-2409.7959"
       y="-714.77734" />
    <g
       id="g43076"
       transform="translate(-852,28)" />
    <path
       style="fill:#0000ff;fill-opacity:1;stroke:none"
       d="m -1982.7684,1340.5218 0,88 0,88 88,0 4,0 0,-0.094 c 46.7462,-2.0893 84,-40.6445 84,-87.9062 0,-47.2617 -37.2538,-85.8169 -84,-87.9062 l 0,-0.094 -4,0 -88,0 z"
       id="rect42804-6-32"
       inkscape:connector-curvature="0" />
    <text
       sodipodi:linespacing="125%"
       id="text30126-9-4"
       y="1468.3622"
       x="-1984"
       style="font-size:144px;font-style:normal;font-weight:normal;line-height:125%;letter-spacing:0px;word-spacing:0px;fill:#000000;fill-opacity:1;stroke:none;font-family:Sans"
       xml:space="preserve"><tspan
         y="1468.3622"
         x="-1984"
         id="tspan30128-9-2"
         sodipodi:role="line">😊</tspan></text>
    <text
       sodipodi:linespacing="125%"
       id="text30126-9-4-5"
       y="1180.3622"
       x="-960"
       style="font-size:144px;font-style:normal;font-weight:normal;line-height:125%;letter-spacing:0px;word-spacing:0px;fill:#000000;fill-opacity:1;stroke:none;font-family:Sans"
       xml:space="preserve"><tspan
         y="1180.3622"
         x="-960"
         id="tspan30128-9-2-5"
         sodipodi:role="line" /></text>
    <g
       style="font-size:144px;font-style:normal;font-weight:normal;text-align:center;line-height:125%;letter-spacing:0px;word-spacing:0px;text-anchor:middle;fill:#000000;fill-opacity:1;stroke:none;font-family:Sans"
       id="text3264"
       transform="translate(1855.505,-1278.56)">
      <path
         d="m -1452.6545,1688.2502 c -10e-5,7.776 -1.0081,15.84 -3.024,24.192 -1.9201,8.256 -4.2721,15.36 -7.056,21.312 -2.6881,5.952 -5.5201,10.896 -8.496,14.832 -2.8801,3.84 -5.2801,5.76 -7.2,5.76 -1.5361,0 -2.5441,0.768 -3.024,2.304 -0.2881,0.864 -2.4001,1.632 -6.336,2.304 -3.84,0.768 -7.872,1.152 -12.096,1.152 -2.592,0 -4.656,-0.336 -6.192,-1.008 -1.536,-0.576 -3.552,-1.824 -6.048,-3.744 -5.088,-4.032 -9.552,-10.32 -13.392,-18.864 -3.84,-8.64 -5.76,-16.752 -5.76,-24.336 0,-8.736 1.968,-17.424 5.904,-26.064 3.936,-8.7359 8.928,-15.2639 14.976,-19.584 5.76,-4.0319 9.6,-6.0479 11.52,-6.048 1.248,10e-5 3.216,-1.2959 5.904,-3.888 2.688,-2.5919 4.8479,-3.8879 6.48,-3.888 1.8239,10e-5 3.3119,-0.6239 4.464,-1.872 1.2479,-1.3439 3.0239,-2.0159 5.328,-2.016 7.1999,10e-5 13.0079,3.6001 17.424,10.8 4.4159,7.1041 6.6239,16.6561 6.624,28.656 m -7.92,-2.736 c -10e-5,-2.7839 -1.3921,-6.9119 -4.176,-12.384 -2.6881,-5.4719 -4.5601,-8.5439 -5.616,-9.216 -1.1521,-0.7679 -2.9761,-1.1519 -5.472,-1.152 -4.2241,1e-4 -9.6961,1.1041 -16.416,3.312 -14.592,4.6081 -23.52,16.7521 -26.784,36.432 -0.96,5.952 -1.44,9.84 -1.44,11.664 0,2.784 1.152,7.584 3.456,14.4 5.184,14.496 12.24,21.744 21.168,21.744 2.496,0 5.184,-0.576 8.064,-1.728 3.3599,-1.248 7.4399,-5.424 12.24,-12.528 4.8959,-7.2 7.7279,-13.152 8.496,-17.856 0.4799,-3.936 1.6799,-9.888 3.6,-17.856 1.9199,-7.968 2.8799,-12.9119 2.88,-14.832"
         style="font-variant:normal;font-stretch:normal;font-family:Purisa;-inkscape-font-specification:Purisa"
         id="path3275"
         inkscape:connector-curvature="0" />
      <path
         d="m -1412.8677,1641.8822 c 3.0719,10e-5 6.8159,-0.3839 11.2319,-1.152 4.512,-0.8639 8.208,-1.2959 11.088,-1.296 1.248,10e-5 2.112,0.048 2.592,0.144 3.36,0.4801 5.76,0.8161 7.2,1.008 1.44,0.1921 3.408,0.5761 5.904,1.152 2.592,0.4801 4.416,1.0081 5.472,1.584 1.152,0.5761 2.496,1.3921 4.032,2.448 1.536,0.9601 2.64,2.1121 3.312,3.456 0.672,1.2481 1.248,2.8321 1.728,4.752 0.48,1.9201 0.72,4.0801 0.72,6.48 0,4.2241 -0.576,8.6401 -1.728,13.248 -1.152,4.5121 -2.304,6.7681 -3.4559,6.768 -1.2481,10e-5 -1.8721,0.9121 -1.8721,2.736 0,2.2081 -2.88,5.952 -8.64,11.232 -5.76,5.28 -10.272,8.256 -13.536,8.928 -3.936,1.056 -6.192,2.112 -6.768,3.168 -0.672,1.248 -3.792,1.872 -9.36,1.872 l -8.496,0 1.44,25.92 c 0.384,6.624 0.576,12.432 0.576,17.424 0,6.144 -0.528,9.984 -1.5839,11.52 -1.6321,1.92 -3.0241,2.88 -4.1761,2.88 -2.112,0 -3.456,-2.16 -4.032,-6.48 -0.96,-7.392 -2.16,-21.408 -3.6,-42.048 -1.44,-20.64 -2.16,-34.5119 -2.16,-41.616 l 0,-15.408 -4.32,3.024 c -1.92,1.3441 -3.6,2.0161 -5.04,2.016 -0.576,10e-5 -1.2,-0.3359 -1.872,-1.008 -0.576,-0.6719 -0.864,-1.4879 -0.864,-2.448 0,-2.6879 2.736,-6.9119 8.2081,-12.672 3.0719,-3.2639 5.3759,-5.4239 6.9119,-6.48 1.536,-1.0559 3.12,-1.5839 4.752,-1.584 0.48,10e-5 1.296,0.096 2.448,0.288 1.152,0.096 2.448,0.1441 3.8881,0.144 m 31.3919,10.8 c -5.088,-1.1519 -8.592,-1.7279 -10.512,-1.728 -1.92,1e-4 -6.336,0.7201 -13.248,2.16 -5.088,1.0561 -8.256,2.3521 -9.504,3.888 -1.248,1.5361 -1.872,5.0401 -1.872,10.512 0,5.5681 0.336,11.6161 1.008,18.144 0.672,6.528 1.392,10.224 2.16,11.088 0.384,0.48 1.488,0.72 3.312,0.72 3.072,0 7.2,-0.672 12.384,-2.016 5.184,-1.44 9.36,-3.024 12.528,-4.752 1.92,-1.056 3.552,-2.3039 4.896,-3.744 1.344,-1.5359 2.064,-2.8799 2.16,-4.032 0.288,-2.1119 1.968,-5.1839 5.04,-9.216 3.168,-4.1279 4.752,-7.4879 4.752,-10.08 0,-5.3759 -4.368,-9.0239 -13.104,-10.944"
         style="font-variant:normal;font-stretch:normal;font-family:Purisa;-inkscape-font-specification:Purisa"
         id="path3277"
         inkscape:connector-curvature="0" />
      <path
         d="m -1342.6835,1666.6502 c 0,-2.8799 0.384,-5.2799 1.152,-7.2 0.864,-2.0159 1.68,-3.3119 2.448,-3.888 0.768,-0.6719 1.44,-1.0079 2.016,-1.008 1.056,10e-5 2.784,-0.6239 5.184,-1.872 2.4,-1.3439 4.992,-2.7839 7.776,-4.32 2.88,-1.5359 6.912,-2.9279 12.096,-4.176 5.184,-1.3439 10.7039,-2.0159 16.56,-2.016 8.7359,10e-5 13.1039,1.3921 13.104,4.176 -10e-5,1.3441 -4.6081,2.8321 -13.824,4.464 -7.488,1.2481 -14.544,3.0721 -21.168,5.472 -6.624,2.3041 -11.088,4.5601 -13.392,6.768 -1.44,1.4401 -2.16,3.5041 -2.16,6.192 0,0.5761 0.048,1.7281 0.144,3.456 0.192,1.6321 0.48,4.2721 0.864,7.92 0.384,3.6481 0.72,7.2481 1.008,10.8 0.576,7.968 1.392,11.952 2.448,11.952 0.288,0 0.624,-0.144 1.008,-0.432 1.632,-0.96 7.104,-2.544 16.416,-4.752 9.4079,-2.208 15.3119,-3.312 17.712,-3.312 2.8799,0 4.3199,1.2 4.32,3.6 -10e-5,1.728 -1.6321,3.264 -4.896,4.608 -3.2641,1.344 -9.792,3.264 -19.584,5.76 -7.2,1.728 -11.664,3.024 -13.392,3.888 -1.632,0.864 -2.448,2.208 -2.448,4.032 0,0.096 0.096,6.096 0.288,18 l 0.432,12.384 7.344,0 c 4.32,0 9.792,-0.864 16.416,-2.592 6.7199,-1.824 12.2879,-3.936 16.704,-6.336 2.9759,-1.632 4.9919,-2.448 6.048,-2.448 0.9599,0 1.9199,0.576 2.88,1.728 0.9599,1.056 1.4399,2.112 1.44,3.168 -1e-4,3.36 -5.2321,7.104 -15.696,11.232 -10.368,4.032 -20.544,6.048 -30.528,6.048 -6.048,0 -9.696,-0.912 -10.944,-2.736 -1.056,-1.248 -1.872,-5.04 -2.448,-11.376 -0.576,-6.432 -1.248,-15.984 -2.016,-28.656 -0.672,-12.768 -1.44,-23.664 -2.304,-32.688 -0.672,-7.0079 -1.008,-12.2879 -1.008,-15.84"
         style="font-variant:normal;font-stretch:normal;font-family:Purisa;-inkscape-font-specification:Purisa"
         id="path3279"
         inkscape:connector-curvature="0" />
      <path
         d="m -1244.4575,1711.1462 c 0,4.896 0.192,9.168 0.576,12.816 0.384,3.648 0.576,5.952 0.576,6.912 0,4.896 -0.672,9.6 -2.016,14.112 -1.248,4.416 -2.64,6.624 -4.176,6.624 -2.304,-0.096 -3.936,-0.528 -4.896,-1.296 -0.864,-0.768 -1.536,-2.688 -2.016,-5.76 -0.48,-3.168 -0.72,-8.304 -0.72,-15.408 0,-12.288 0.336,-28.704 1.008,-49.248 0.672,-20.6399 1.296,-31.6799 1.872,-33.12 1.056,-2.3999 3.024,-3.5999 5.904,-3.6 1.632,10e-5 3.264,0.5281 4.896,1.584 1.248,0.7681 4.8,5.3761 10.656,13.824 5.952,8.3521 8.928,13.0081 8.928,13.968 0,0.5761 0.864,2.2081 2.592,4.896 1.728,2.5921 4.7039,7.5361 8.928,14.832 4.3199,7.2 8.7839,15.36 13.392,24.48 9.9839,19.68 16.5119,29.52 19.584,29.52 0.3839,0 0.7199,-0.096 1.008,-0.288 0.2879,-0.192 0.6719,-0.96 1.152,-2.304 0.4799,-1.344 0.9119,-3.216 1.296,-5.616 0.3839,-2.496 0.7679,-6.192 1.152,-11.088 0.4799,-4.992 0.9119,-10.992 1.296,-18 1.7279,-27.3599 3.1679,-43.3919 4.32,-48.096 0.9599,-4.2239 2.5919,-6.6239 4.896,-7.2 0.5759,-0.096 1.2959,-0.1439 2.16,-0.144 1.6319,10e-5 2.7839,0.6241 3.456,1.872 0.7679,1.2481 1.1519,3.4081 1.152,6.48 -10e-5,2.1121 -0.2401,5.4721 -0.72,10.08 -0.4801,4.6081 -1.2481,11.7601 -2.304,21.456 -0.9601,9.696 -1.8721,20.016 -2.736,30.96 -1.0561,14.592 -2.2561,24.096 -3.6,28.512 -1.2481,4.32 -3.6481,6.48 -7.2,6.48 -6.2401,0 -11.8561,-2.496 -16.848,-7.488 -4.9921,-4.992 -10.1281,-12.864 -15.408,-23.616 -2.5921,-5.184 -4.8961,-9.6 -6.912,-13.248 -2.0161,-3.744 -3.3601,-6.144 -4.032,-7.2 -0.6721,-1.152 -1.2481,-2.256 -1.728,-3.312 -0.48,-1.152 -0.96,-2.64 -1.44,-4.464 -0.672,-2.976 -4.08,-9.168 -10.224,-18.576 -6.144,-9.5039 -9.264,-14.3999 -9.36,-14.688 -0.096,-0.1919 -0.24,-0.2879 -0.432,-0.288 -0.96,10e-5 -1.872,5.0881 -2.736,15.264 -0.864,10.08 -1.296,19.872 -1.296,29.376"
         style="font-variant:normal;font-stretch:normal;font-family:Purisa;-inkscape-font-specification:Purisa"
         id="path3281"
         inkscape:connector-curvature="0" />
      <path
         d="m -1047.0898,1666.6502 c 0,-2.8799 0.384,-5.2799 1.152,-7.2 0.864,-2.0159 1.68,-3.3119 2.448,-3.888 0.768,-0.6719 1.44,-1.0079 2.016,-1.008 1.056,10e-5 2.784,-0.6239 5.184,-1.872 2.4,-1.3439 4.992,-2.7839 7.776,-4.32 2.88,-1.5359 6.912,-2.9279 12.0961,-4.176 5.1839,-1.3439 10.7039,-2.0159 16.55995,-2.016 8.73593,10e-5 13.10393,1.3921 13.104,4.176 -7e-5,1.3441 -4.60807,2.8321 -13.82405,4.464 -7.488,1.2481 -14.544,3.0721 -21.168,5.472 -6.624,2.3041 -11.088,4.5601 -13.392,6.768 -1.44,1.4401 -2.16,3.5041 -2.16,6.192 0,0.5761 0.048,1.7281 0.144,3.456 0.192,1.6321 0.48,4.2721 0.864,7.92 0.384,3.6481 0.72,7.2481 1.008,10.8 0.576,7.968 1.392,11.952 2.448,11.952 0.288,0 0.624,-0.144 1.008,-0.432 1.632,-0.96 7.104,-2.544 16.416,-4.752 9.408,-2.208 15.312,-3.312 17.71205,-3.312 2.87994,0 4.31994,1.2 4.32,3.6 -6e-5,1.728 -1.63206,3.264 -4.896,4.608 -3.26405,1.344 -9.79205,3.264 -19.58395,5.76 -7.2001,1.728 -11.6641,3.024 -13.3921,3.888 -1.632,0.864 -2.448,2.208 -2.448,4.032 0,0.096 0.096,6.096 0.288,18 l 0.432,12.384 7.344,0 c 4.32,0 9.792,-0.864 16.416,-2.592 6.72,-1.824 12.28799,-3.936 16.70405,-6.336 2.97593,-1.632 4.99193,-2.448 6.048,-2.448 0.95993,0 1.91993,0.576 2.88,1.728 0.95993,1.056 1.43993,2.112 1.44,3.168 -7e-5,3.36 -5.23207,7.104 -15.696,11.232 -10.36805,4.032 -20.54405,6.048 -30.52805,6.048 -6.048,0 -9.696,-0.912 -10.944,-2.736 -1.056,-1.248 -1.872,-5.04 -2.4479,-11.376 -0.5761,-6.432 -1.2481,-15.984 -2.0161,-28.656 -0.672,-12.768 -1.44,-23.664 -2.304,-32.688 -0.672,-7.0079 -1.008,-12.2879 -1.008,-15.84"
         style="font-variant:normal;font-stretch:normal;font-family:Purisa;-inkscape-font-specification:Purisa"
         id="path3283"
         inkscape:connector-curvature="0" />
      <path
         d="m -957.21575,1766.5862 c -1.24801,0 -2.25601,-0.864 -3.024,-2.592 -0.67201,-1.728 -1.24801,-5.472 -1.728,-11.232 -0.48001,-5.76 -0.81601,-13.488 -1.008,-23.184 -0.096,-9.792 -0.14401,-23.28 -0.144,-40.464 -1e-5,-29.4719 0.57599,-44.9279 1.728,-46.368 1.34399,-1.8239 3.11998,-2.7359 5.328,-2.736 1.24798,10e-5 2.44798,1.2481 3.6,3.744 1.24798,2.4961 2.83198,7.0561 4.752,13.68 2.87997,10.4641 6.19197,19.9201 9.936,28.368 3.83996,8.352 6.57596,12.528 8.208,12.528 1.63195,0 5.08795,-4.464 10.368,-13.392 5.27994,-9.0239 11.32793,-20.7839 18.144,-35.28 1.24793,-2.6879 2.87992,-4.8479 4.896,-6.48 2.01592,-1.6319 3.98392,-2.4479 5.904,-2.448 1.34392,10e-5 2.39991,0.3841 3.168,1.152 2.11191,1.9201 3.50391,6.2401 4.176,12.96 0.67191,6.6241 1.10391,20.6401 1.296,42.048 0.0959,12.96 0.38391,23.52 0.864,31.68 0.47991,8.16 0.95991,13.344 1.44,15.552 0.57591,2.112 1.0559,3.888 1.44,5.328 0.3839,1.44 0.5759,2.832 0.576,4.176 -10e-5,2.976 -1.34409,4.464 -4.032,4.464 -1.53609,0 -3.02409,-0.48 -4.464,-1.44 -1.44009,-0.96 -2.44809,-2.208 -3.024,-3.744 -0.57608,-1.536 -1.15208,-10.032 -1.728,-25.488 -0.57608,-15.456 -1.15208,-30.432 -1.728,-44.928 -0.57608,-14.4959 -1.20008,-21.7439 -1.872,-21.744 -0.86408,10e-5 -2.73608,3.2161 -5.616,9.648 -3.45607,7.8721 -7.92007,16.5601 -13.392,26.064 -2.01606,3.552 -5.08806,6.768 -9.216,9.648 -4.03205,2.784 -7.58404,4.176 -10.656,4.176 -0.76804,0 -2.16004,-1.2 -4.176,-3.6 -2.01603,-2.496 -4.03203,-5.472 -6.048,-8.928 l -7.344,-12.528 0,37.152 c -0.096,18.24 -0.57602,30.144 -1.44,35.712 -0.76802,5.664 -2.49602,8.496 -5.184,8.496"
         style="font-variant:normal;font-stretch:normal;font-family:Purisa;-inkscape-font-specification:Purisa"
         id="path3285"
         inkscape:connector-curvature="0" />
      <path
         d="m -781.31075,1688.2502 c -9e-5,7.776 -1.00809,15.84 -3.024,24.192 -1.92008,8.256 -4.27208,15.36 -7.056,21.312 -2.68807,5.952 -5.52007,10.896 -8.496,14.832 -2.88007,3.84 -5.28006,5.76 -7.2,5.76 -1.53606,0 -2.54406,0.768 -3.024,2.304 -0.28806,0.864 -2.40006,1.632 -6.336,2.304 -3.84005,0.768 -7.87204,1.152 -12.096,1.152 -2.59204,0 -4.65604,-0.336 -6.192,-1.008 -1.53603,-0.576 -3.55203,-1.824 -6.048,-3.744 -5.08802,-4.032 -9.55202,-10.32 -13.392,-18.864 -3.84001,-8.64 -5.76001,-16.752 -5.76,-24.336 -10e-6,-8.736 1.96799,-17.424 5.904,-26.064 3.93598,-8.7359 8.92798,-15.2639 14.976,-19.584 5.75996,-4.0319 9.59996,-6.0479 11.52,-6.048 1.24796,10e-5 3.21596,-1.2959 5.904,-3.888 2.68795,-2.5919 4.84795,-3.8879 6.48,-3.888 1.82394,10e-5 3.31194,-0.6239 4.464,-1.872 1.24794,-1.3439 3.02394,-2.0159 5.328,-2.016 7.19993,10e-5 13.00792,3.6001 17.424,10.8 4.41591,7.1041 6.62391,16.6561 6.624,28.656 m -7.92,-2.736 c -8e-5,-2.7839 -1.39208,-6.9119 -4.176,-12.384 -2.68807,-5.4719 -4.56007,-8.5439 -5.616,-9.216 -1.15207,-0.7679 -2.97607,-1.1519 -5.472,-1.152 -4.22406,1e-4 -9.69605,1.1041 -16.416,3.312 -14.59203,4.6081 -23.52002,16.7521 -26.784,36.432 -0.96002,5.952 -1.44002,9.84 -1.44,11.664 -2e-5,2.784 1.15198,7.584 3.456,14.4 5.18397,14.496 12.23996,21.744 21.168,21.744 2.49595,0 5.18395,-0.576 8.064,-1.728 3.35994,-1.248 7.43994,-5.424 12.24,-12.528 4.89593,-7.2 7.72793,-13.152 8.496,-17.856 0.47993,-3.936 1.67993,-9.888 3.6,-17.856 1.91992,-7.968 2.87992,-12.9119 2.88,-14.832"
         style="font-variant:normal;font-stretch:normal;font-family:Purisa;-inkscape-font-specification:Purisa"
         id="path3287"
         inkscape:connector-curvature="0" />
      <path
         d="m -742.676,1667.0822 c -3.16803,10e-5 -6.48003,0.3841 -9.936,1.152 -3.45602,0.7681 -5.71202,1.1521 -6.768,1.152 -2.40001,10e-5 -4.46401,-0.4319 -6.192,-1.296 -1.63201,-0.8639 -2.44801,-1.9679 -2.448,-3.312 -10e-6,-1.6319 1.05599,-2.7359 3.168,-3.312 2.20799,-0.6719 7.96798,-1.7279 17.28,-3.168 18.91195,-2.8799 37.00794,-5.9999 54.288,-9.36 10.65591,-2.0159 17.5679,-3.0239 20.736,-3.024 2.9759,10e-5 5.99989,0.6241 9.072,1.872 3.07189,1.2481 4.60788,2.6401 4.608,4.176 -1.2e-4,1.4401 -1.24811,2.6881 -3.744,3.744 -2.49611,0.9601 -5.80811,1.4401 -9.936,1.44 -6.4321,1e-4 -13.29609,0.8641 -20.592,2.592 l -11.088,2.592 2.16,12.096 c 1.05593,7.4881 2.30393,21.84 3.744,43.056 1.53592,21.12 2.44792,32.928 2.736,35.424 0.28792,2.496 0.43192,4.368 0.432,5.616 -8e-5,2.976 -1.29608,4.464 -3.888,4.464 -2.49607,0 -4.36807,-3.12 -5.616,-9.36 -1.15207,-6.24 -2.25607,-18.48 -3.312,-36.72 -1.92006,-31.1039 -4.41606,-48.2879 -7.488,-51.552 -0.76806,-0.7679 -2.01606,-1.1519 -3.744,-1.152 -0.76805,10e-5 -4.08005,0.4801 -9.936,1.44 -5.76004,0.9601 -10.27204,1.4401 -13.536,1.44"
         style="font-variant:normal;font-stretch:normal;font-family:Purisa;-inkscape-font-specification:Purisa"
         id="path3289"
         inkscape:connector-curvature="0" />
      <path
         d="m -598.5275,1739.5142 c 0.0959,0 0.38394,-0.144 0.864,-0.432 0.47994,-0.384 1.10394,-0.768 1.872,-1.152 0.86394,-0.384 1.77594,-0.576 2.736,-0.576 1.53594,0 2.83194,0.432 3.888,1.296 1.15193,0.768 1.72793,1.824 1.728,3.168 -7e-5,2.112 -1.58407,4.128 -4.752,6.048 -3.16806,1.824 -9.16805,4.416 -18,7.776 -5.76004,2.208 -9.88803,3.312 -12.384,3.312 -1.53603,0 -3.60003,-0.384 -6.192,-1.152 -2.78402,-0.768 -4.70402,-1.584 -5.76,-2.448 -1.05602,-0.864 -1.58402,-1.968 -1.584,-3.312 -2e-5,-1.44 0.38398,-2.4 1.152,-2.88 0.76798,-0.48 2.25598,-0.72 4.464,-0.72 3.35997,0 7.63197,-1.104 12.816,-3.312 l 7.2,-3.312 -1.296,-26.928 c -0.86404,-17.952 -1.29604,-32.1599 -1.296,-42.624 l 0,-15.408 -4.176,1.152 c -4.70403,1.3441 -9.26403,2.0161 -13.68,2.016 -5.56802,10e-5 -8.35202,-1.0559 -8.352,-3.168 -2e-5,-1.2479 1.67998,-2.5919 5.04,-4.032 3.35998,-1.5359 7.63197,-3.1199 12.816,-4.752 5.27996,-1.6319 8.63996,-2.7359 10.08,-3.312 1.05596,-0.4799 4.17595,-0.7199 9.36,-0.72 6.62394,10e-5 10.84794,0.3361 12.672,1.008 0.67193,0.2881 1.29593,0.9121 1.872,1.872 0.57593,0.9601 0.86393,1.8721 0.864,2.736 -7e-5,1.7281 -0.81607,3.0241 -2.448,3.888 -1.63206,0.7681 -4.80006,1.4401 -9.504,2.016 l -4.32,0.576 0.288,25.056 c 0.67195,38.88 2.01595,58.32 4.032,58.32"
         style="font-variant:normal;font-stretch:normal;font-family:Purisa;-inkscape-font-specification:Purisa"
         id="path3291"
         inkscape:connector-curvature="0" />
      <path
         d="m -476.28725,1712.1542 c -9e-5,1.152 -0.81609,3.312 -2.448,6.48 -1.53609,3.168 -3.84009,6.816 -6.912,10.944 -2.97608,4.128 -6.33608,8.112 -10.08,11.952 -3.64807,3.744 -7.92007,6.912 -12.816,9.504 -4.89606,2.592 -9.69605,3.888 -14.4,3.888 -11.61604,0 -21.02403,-7.392 -28.224,-22.176 -0.96002,-1.92 -1.44002,-8.448 -1.44,-19.584 -2e-5,-20.064 0.95998,-33.4559 2.88,-40.176 2.39998,-8.8319 8.30397,-16.5599 17.712,-23.184 9.40795,-6.7199 18.33594,-10.0799 26.784,-10.08 4.41593,10e-5 8.44793,1.4401 12.096,4.32 3.74392,2.7841 5.61592,5.9041 5.616,9.36 -8e-5,1.2481 -0.72008,1.8721 -2.16,1.872 -1.05608,10e-5 -2.16008,-0.3359 -3.312,-1.008 -1.15208,-0.6719 -2.01608,-1.5359 -2.592,-2.592 -0.96007,-2.1119 -2.44807,-3.1679 -4.464,-3.168 -4.99206,10e-5 -11.04006,1.6801 -18.144,5.04 -7.00804,3.3601 -12.38404,7.1041 -16.128,11.232 -3.16803,3.4561 -5.56803,8.7841 -7.2,15.984 -1.63203,7.2001 -2.44803,18.096 -2.448,32.688 -3e-5,6.912 0.91197,12.528 2.736,16.848 1.82397,4.32 4.46397,7.824 7.92,10.512 3.45596,2.688 7.00796,4.032 10.656,4.032 2.49595,0 5.99995,-1.056 10.512,-3.168 4.51194,-2.112 7.67993,-4.176 9.504,-6.192 l 7.344,-7.344 c 2.30392,-2.208 4.70392,-5.04 7.2,-8.496 2.59192,-3.552 4.65591,-6.384 6.192,-8.496 1.63191,-2.112 2.97591,-3.168 4.032,-3.168 1.05591,0 1.58391,1.392 1.584,4.176"
         style="font-variant:normal;font-stretch:normal;font-family:Purisa;-inkscape-font-specification:Purisa"
         id="path3293"
         inkscape:connector-curvature="0" />
      <path
         d="m -377.99825,1688.2502 c -9e-5,7.776 -1.00809,15.84 -3.024,24.192 -1.92008,8.256 -4.27208,15.36 -7.056,21.312 -2.68807,5.952 -5.52007,10.896 -8.496,14.832 -2.88007,3.84 -5.28006,5.76 -7.2,5.76 -1.53606,0 -2.54406,0.768 -3.024,2.304 -0.28806,0.864 -2.40006,1.632 -6.336,2.304 -3.84005,0.768 -7.87204,1.152 -12.096,1.152 -2.59204,0 -4.65604,-0.336 -6.192,-1.008 -1.53603,-0.576 -3.55203,-1.824 -6.048,-3.744 -5.08802,-4.032 -9.55202,-10.32 -13.392,-18.864 -3.84001,-8.64 -5.76001,-16.752 -5.76,-24.336 -10e-6,-8.736 1.96799,-17.424 5.904,-26.064 3.93598,-8.7359 8.92798,-15.2639 14.976,-19.584 5.75996,-4.0319 9.59996,-6.0479 11.52,-6.048 1.24796,10e-5 3.21596,-1.2959 5.904,-3.888 2.68795,-2.5919 4.84795,-3.8879 6.48,-3.888 1.82394,10e-5 3.31194,-0.6239 4.464,-1.872 1.24794,-1.3439 3.02394,-2.0159 5.328,-2.016 7.19993,10e-5 13.00792,3.6001 17.424,10.8 4.41591,7.1041 6.62391,16.6561 6.624,28.656 m -7.92,-2.736 c -8e-5,-2.7839 -1.39208,-6.9119 -4.176,-12.384 -2.68807,-5.4719 -4.56007,-8.5439 -5.616,-9.216 -1.15207,-0.7679 -2.97607,-1.1519 -5.472,-1.152 -4.22406,1e-4 -9.69605,1.1041 -16.416,3.312 -14.59203,4.6081 -23.52002,16.7521 -26.784,36.432 -0.96002,5.952 -1.44002,9.84 -1.44,11.664 -2e-5,2.784 1.15198,7.584 3.456,14.4 5.18397,14.496 12.23996,21.744 21.168,21.744 2.49595,0 5.18395,-0.576 8.064,-1.728 3.35994,-1.248 7.43994,-5.424 12.24,-12.528 4.89593,-7.2 7.72793,-13.152 8.496,-17.856 0.47993,-3.936 1.67993,-9.888 3.6,-17.856 1.91992,-7.968 2.87992,-12.9119 2.88,-14.832"
         style="font-variant:normal;font-stretch:normal;font-family:Purisa;-inkscape-font-specification:Purisa"
         id="path3295"
         inkscape:connector-curvature="0" />
      <path
         d="m -346.7075,1711.1462 c -2e-5,4.896 0.19198,9.168 0.576,12.816 0.38397,3.648 0.57597,5.952 0.576,6.912 -3e-5,4.896 -0.67202,9.6 -2.016,14.112 -1.24802,4.416 -2.64002,6.624 -4.176,6.624 -2.30402,-0.096 -3.93602,-0.528 -4.896,-1.296 -0.86401,-0.768 -1.53601,-2.688 -2.016,-5.76 -0.48001,-3.168 -0.72001,-8.304 -0.72,-15.408 -10e-6,-12.288 0.33599,-28.704 1.008,-49.248 0.67199,-20.6399 1.29599,-31.6799 1.872,-33.12 1.05598,-2.3999 3.02398,-3.5999 5.904,-3.6 1.63198,10e-5 3.26398,0.5281 4.896,1.584 1.24797,0.7681 4.79997,5.3761 10.656,13.824 5.95196,8.3521 8.92795,13.0081 8.928,13.968 -5e-5,0.5761 0.86395,2.2081 2.592,4.896 1.72795,2.5921 4.70395,7.5361 8.928,14.832 4.31994,7.2 8.78393,15.36 13.392,24.48 9.98392,19.68 16.51191,29.52 19.584,29.52 0.38391,0 0.71991,-0.096 1.008,-0.288 0.28791,-0.192 0.67191,-0.96 1.152,-2.304 0.47991,-1.344 0.91191,-3.216 1.296,-5.616 0.38391,-2.496 0.76791,-6.192 1.152,-11.088 0.47991,-4.992 0.9119,-10.992 1.296,-18 1.7279,-27.3599 3.1679,-43.3919 4.32,-48.096 0.9599,-4.2239 2.5919,-6.6239 4.896,-7.2 0.57589,-0.096 1.29589,-0.1439 2.16,-0.144 1.63189,10e-5 2.78389,0.6241 3.456,1.872 0.76789,1.2481 1.15189,3.4081 1.152,6.48 -1.1e-4,2.1121 -0.24011,5.4721 -0.72,10.08 -0.48011,4.6081 -1.24811,11.7601 -2.304,21.456 -0.96011,9.696 -1.87211,20.016 -2.736,30.96 -1.0561,14.592 -2.2561,24.096 -3.6,28.512 -1.2481,4.32 -3.6481,6.48 -7.2,6.48 -6.24009,0 -11.85608,-2.496 -16.848,-7.488 -4.99207,-4.992 -10.12807,-12.864 -15.408,-23.616 -2.59206,-5.184 -4.89606,-9.6 -6.912,-13.248 -2.01605,-3.744 -3.36005,-6.144 -4.032,-7.2 -0.67205,-1.152 -1.24805,-2.256 -1.728,-3.312 -0.48005,-1.152 -0.96005,-2.64 -1.44,-4.464 -0.67205,-2.976 -4.08004,-9.168 -10.224,-18.576 -6.14403,-9.5039 -9.26403,-14.3999 -9.36,-14.688 -0.096,-0.1919 -0.24003,-0.2879 -0.432,-0.288 -0.96003,10e-5 -1.87203,5.0881 -2.736,15.264 -0.86402,10.08 -1.29602,19.872 -1.296,29.376"
         style="font-variant:normal;font-stretch:normal;font-family:Purisa;-inkscape-font-specification:Purisa"
         id="path3297"
         inkscape:connector-curvature="0" />
      <path
         d="m -948.22362,1885.3862 c -10e-5,-2.88 1.96789,-14.16 5.904,-33.84 3.93589,-19.6799 6.33588,-29.5199 7.19999,-29.52 2.49589,10e-5 4.27189,0.5281 5.32801,1.584 1.05588,0.9601 1.58388,2.8321 1.584,5.616 -1.2e-4,3.1681 -1.15212,10.5121 -3.45601,22.032 l -7.48799,37.44 c -1.34411,6.816 -2.59211,12.672 -3.744,17.568 -1.05611,4.8 -1.82411,7.968 -2.304,9.504 -0.38411,1.44 -0.67211,2.784 -0.864,4.032 -0.19211,1.248 -0.28811,2.688 -0.28801,4.32 -10e-5,2.304 -0.4801,4.08 -1.43999,5.328 -0.8641,1.248 -2.0161,1.872 -3.456,1.872 -2.1121,0 -3.9361,-1.056 -5.472,-3.168 -1.53609,-2.208 -2.78409,-4.368 -3.744,-6.48 -0.96009,-2.208 -1.82409,-3.312 -2.592,-3.312 -0.96009,0 -1.87209,-2.016 -2.736,-6.048 -0.96009,-4.512 -3.26408,-10.464 -6.912,-17.856 -3.64808,-7.392 -6.72007,-12.24 -9.216,-14.544 l -4.32001,-4.176 -4.31999,10.8 c -5.56806,14.304 -10.60808,28.608 -15.11998,42.912 -1.9201,5.952 -3.2641,9.6 -4.032,10.944 -0.7681,1.344 -2.1601,2.016 -4.176,2.016 -1.7281,0 -3.0241,-0.576 -3.888,-1.728 -0.7681,-1.056 -1.5361,-3.408 -2.304,-7.056 -2.4961,-11.136 -4.992,-23.184 -7.488,-36.144 -2.4,-13.056 -4.272,-22.176 -5.616,-27.36 -1.344,-4.6079 -2.016,-8.3999 -2.016,-11.376 0,-1.8239 -0.24,-3.1679 -0.72,-4.032 -0.384,-0.9599 -0.864,-1.6319 -1.44,-2.016 -0.48,-0.4799 -0.96,-1.9199 -1.44,-4.32 -0.384,-2.3999 -0.576,-5.8079 -0.576,-10.224 0,-4.0319 0.816,-6.0479 2.448,-6.048 2.496,10e-5 5.04,4.1281 7.632,12.384 2.592,8.2561 6.096,23.4241 10.512,45.504 3.2639,16.032 5.4719,24.048 6.624,24.048 0.6719,0 2.2079,-3.36 4.608,-10.08 2.3999,-6.816 4.9439,-14.16 7.63198,-22.032 2.78394,-7.968 4.65594,-12.864 5.616,-14.688 1.53594,-2.9759 3.69594,-4.4639 6.48,-4.464 4.41593,10e-5 9.35993,3.4561 14.832,10.368 5.47191,6.912 9.98391,15.6 13.53599,26.064 2.01591,6.24 3.64791,9.36 4.89601,9.36 1.0559,0 2.3519,-2.928 3.888,-8.784 1.6319,-5.856 2.4479,-10.656 2.448,-14.4"
         style="font-variant:normal;font-stretch:normal;font-family:Purisa;-inkscape-font-specification:Purisa"
         id="path3299"
         inkscape:connector-curvature="0" />
      <path
         d="m -911.94912,1846.6502 c -10e-6,-2.8799 0.38399,-5.2799 1.15199,-7.2 0.86399,-2.0159 1.67999,-3.3119 2.44801,-3.888 0.76798,-0.6719 1.43998,-1.0079 2.016,-1.008 1.05598,10e-5 2.78398,-0.6239 5.18399,-1.872 2.39998,-1.3439 4.99198,-2.7839 7.77601,-4.32 2.87996,-1.5359 6.91196,-2.9279 12.096,-4.176 5.18395,-1.3439 10.70394,-2.0159 16.56,-2.016 8.73593,10e-5 13.10393,1.3921 13.104,4.176 -7e-5,1.3441 -4.60807,2.8321 -13.82401,4.464 -7.48804,1.2481 -14.54404,3.0721 -21.168,5.472 -6.62402,2.3041 -11.08802,4.5601 -13.39199,6.768 -1.44003,1.4401 -2.16002,3.5041 -2.16,6.192 -2e-5,0.5761 0.048,1.7281 0.144,3.456 0.19198,1.6321 0.47998,4.2721 0.86399,7.92 0.38398,3.6481 0.71998,7.2481 1.00801,10.8 0.57597,7.968 1.39197,11.952 2.448,11.952 0.28797,0 0.62397,-0.144 1.008,-0.432 1.63197,-0.96 7.10396,-2.544 16.41599,-4.752 9.40795,-2.208 15.31195,-3.312 17.712,-3.312 2.87994,0 4.31994,1.2 4.32001,3.6 -7e-5,1.728 -1.63207,3.264 -4.896,4.608 -3.26406,1.344 -9.79205,3.264 -19.584,5.76 -7.20004,1.728 -11.66403,3.024 -13.392,3.888 -1.63203,0.864 -2.44803,2.208 -2.44801,4.032 -2e-5,0.096 0.096,6.096 0.288,18 l 0.432,12.384 7.34401,0 c 4.31996,0 9.79195,-0.864 16.41599,-2.592 6.71995,-1.824 12.28795,-3.936 16.70401,-6.336 2.97593,-1.632 4.99193,-2.448 6.048,-2.448 0.95992,0 1.91992,0.576 2.88,1.728 0.95992,1.056 1.43992,2.112 1.43999,3.168 -7e-5,3.36 -5.23206,7.104 -15.696,11.232 -10.36804,4.032 -20.54403,6.048 -30.52799,6.048 -6.04803,0 -9.69602,-0.912 -10.94401,-2.736 -1.05601,-1.248 -1.87201,-5.04 -2.44799,-11.376 -0.57602,-6.432 -1.24802,-15.984 -2.016,-28.656 -0.67202,-12.768 -1.44002,-23.664 -2.30401,-32.688 -0.672,-7.0079 -1.008,-12.2879 -1.00799,-15.84"
         style="font-variant:normal;font-stretch:normal;font-family:Purisa;-inkscape-font-specification:Purisa"
         id="path3301"
         inkscape:connector-curvature="0" />
      <path
         d="m -790.97113,1932.9062 c -1.24804,0 -3.02404,0.432 -5.32799,1.296 -2.30404,0.768 -3.98404,1.152 -5.04,1.152 -1.24804,0 -2.30404,-0.432 -3.168,-1.296 -0.76804,-0.96 -1.44004,-2.352 -2.01601,-4.176 -0.48003,-1.92 -0.86403,-4.08 -1.15199,-6.48 -0.28804,-2.4 -0.57603,-5.376 -0.86401,-8.928 -0.19202,-3.552 -0.43202,-7.104 -0.72,-10.656 -0.19202,-3.552 -0.52802,-7.776 -1.00799,-12.672 -0.38403,-4.992 -0.86403,-9.744 -1.44001,-14.256 -1.05602,-9.5039 -1.87202,-17.8559 -2.44799,-25.056 l -1.00801,-12.96 -5.616,0 c -4.80001,10e-5 -7.20001,-1.0559 -7.19999,-3.168 -2e-5,-3.0719 7.39198,-6.5279 22.17599,-10.368 5.95197,-1.5359 14.68796,-2.3039 26.208,-2.304 4.41594,10e-5 7.34394,0.2401 8.78401,0.72 1.53593,0.3841 3.07192,1.3921 4.608,3.024 2.39992,2.7841 3.59992,5.0401 3.6,6.768 -8e-5,4.4161 -1.24808,9.1201 -3.744,14.112 -2.40007,4.9921 -4.84807,9.2161 -7.34401,12.672 -2.40006,3.4561 -3.60006,5.5201 -3.59999,6.192 -7e-5,0.5761 0.67193,0.8641 2.016,0.864 1.91993,10e-5 4.79993,1.2001 8.63999,3.6 3.93593,2.304 6.47993,4.416 7.63201,6.336 2.30391,3.744 3.45591,9.264 3.45599,16.56 -8e-5,11.424 -3.21607,21.072 -9.64799,28.944 -6.33607,7.872 -12.33607,11.808 -18,11.808 -0.96006,0 -2.20806,-0.288 -3.744,-0.864 -1.53605,-0.576 -2.88005,-0.864 -4.03201,-0.864 m 18.57601,-99.504 c -1.44007,-1.5359 -4.94407,-2.3039 -10.512,-2.304 -3.45606,1e-4 -6.62405,0.2401 -9.504,0.72 -7.10404,1.2481 -11.08804,2.1601 -11.952,2.736 -0.96004,0.6721 -1.44004,2.3521 -1.44001,5.04 l 0,2.88 c -3e-5,5.8561 0.57597,12.7201 1.72801,20.592 0.67196,5.1841 1.29596,8.544 1.872,10.08 0.57596,1.44 1.53596,2.16 2.88,2.16 2.11195,0 6.23995,-3.6 12.384,-10.8 6.23994,-7.1999 10.55993,-13.3919 12.96,-18.576 2.39993,-5.3759 3.59993,-8.4479 3.59999,-9.216 -6e-5,-0.6719 -0.67206,-1.7759 -2.01599,-3.312 m 9.216,62.496 c -8e-5,-12.576 -4.65608,-18.864 -13.968,-18.864 -2.40006,0 -4.84806,0.384 -7.344,1.152 -2.40006,0.672 -5.13605,1.728 -8.208,3.168 -2.97605,1.344 -5.04005,2.208 -6.192,2.592 -0.96004,0.384 -1.63204,0.96 -2.016,1.728 -0.28804,0.768 -0.43204,2.448 -0.432,5.04 -4e-5,2.592 0.14396,6.768 0.432,12.528 0.19196,3.456 0.33596,6.192 0.43199,8.208 0.19197,1.92 0.38397,3.84 0.576,5.76 0.28797,1.92 0.67197,3.312 1.15201,4.176 0.47996,0.864 0.95995,1.728 1.43999,2.592 0.57596,0.768 1.39196,1.296 2.44801,1.584 1.05595,0.288 2.11195,0.528 3.16799,0.72 1.15196,0.096 2.68796,0.192 4.60801,0.288 0.47994,0 1.10394,0.048 1.87199,0.144 0.76795,0 1.29595,0 1.58401,0 2.39994,0 4.22394,-0.432 5.472,-1.296 1.24793,-0.864 3.40793,-3.12 6.48,-6.768 3.26393,-3.648 5.47192,-6.864 6.624,-9.648 1.24792,-2.88 1.87192,-7.248 1.872,-13.104"
         style="font-variant:normal;font-stretch:normal;font-family:Purisa;-inkscape-font-specification:Purisa"
         id="path3303"
         inkscape:connector-curvature="0" />
    </g>
    <g
       transform="translate(1865.3807,-1286.8606)"
       style="font-size:144px;font-style:normal;font-weight:normal;text-align:center;line-height:125%;letter-spacing:0px;word-spacing:0px;text-anchor:middle;fill:#000000;fill-opacity:1;stroke:none;font-family:Sans"
       id="text3264-1">
      <path
         inkscape:connector-curvature="0"
         d="m -1452.6545,1688.2502 c -10e-5,7.776 -1.0081,15.84 -3.024,24.192 -1.9201,8.256 -4.2721,15.36 -7.056,21.312 -2.6881,5.952 -5.5201,10.896 -8.496,14.832 -2.8801,3.84 -5.2801,5.76 -7.2,5.76 -1.5361,0 -2.5441,0.768 -3.024,2.304 -0.2881,0.864 -2.4001,1.632 -6.336,2.304 -3.84,0.768 -7.872,1.152 -12.096,1.152 -2.592,0 -4.656,-0.336 -6.192,-1.008 -1.536,-0.576 -3.552,-1.824 -6.048,-3.744 -5.088,-4.032 -9.552,-10.32 -13.392,-18.864 -3.84,-8.64 -5.76,-16.752 -5.76,-24.336 0,-8.736 1.968,-17.424 5.904,-26.064 3.936,-8.7359 8.928,-15.2639 14.976,-19.584 5.76,-4.0319 9.6,-6.0479 11.52,-6.048 1.248,10e-5 3.216,-1.2959 5.904,-3.888 2.688,-2.5919 4.8479,-3.8879 6.48,-3.888 1.8239,10e-5 3.3119,-0.6239 4.464,-1.872 1.2479,-1.3439 3.0239,-2.0159 5.328,-2.016 7.1999,10e-5 13.0079,3.6001 17.424,10.8 4.4159,7.1041 6.6239,16.6561 6.624,28.656 m -7.92,-2.736 c -10e-5,-2.7839 -1.3921,-6.9119 -4.176,-12.384 -2.6881,-5.4719 -4.5601,-8.5439 -5.616,-9.216 -1.1521,-0.7679 -2.9761,-1.1519 -5.472,-1.152 -4.2241,1e-4 -9.6961,1.1041 -16.416,3.312 -14.592,4.6081 -23.52,16.7521 -26.784,36.432 -0.96,5.952 -1.44,9.84 -1.44,11.664 0,2.784 1.152,7.584 3.456,14.4 5.184,14.496 12.24,21.744 21.168,21.744 2.496,0 5.184,-0.576 8.064,-1.728 3.3599,-1.248 7.4399,-5.424 12.24,-12.528 4.8959,-7.2 7.7279,-13.152 8.496,-17.856 0.4799,-3.936 1.6799,-9.888 3.6,-17.856 1.9199,-7.968 2.8799,-12.9119 2.88,-14.832"
         style="font-variant:normal;font-stretch:normal;font-family:Purisa;-inkscape-font-specification:Purisa"
         id="path3275-6" />
      <path
         inkscape:connector-curvature="0"
         d="m -1412.8677,1641.8822 c 3.0719,10e-5 6.8159,-0.3839 11.2319,-1.152 4.512,-0.8639 8.208,-1.2959 11.088,-1.296 1.248,10e-5 2.112,0.048 2.592,0.144 3.36,0.4801 5.76,0.8161 7.2,1.008 1.44,0.1921 3.408,0.5761 5.904,1.152 2.592,0.4801 4.416,1.0081 5.472,1.584 1.152,0.5761 2.496,1.3921 4.032,2.448 1.536,0.9601 2.64,2.1121 3.312,3.456 0.672,1.2481 1.248,2.8321 1.728,4.752 0.48,1.9201 0.72,4.0801 0.72,6.48 0,4.2241 -0.576,8.6401 -1.728,13.248 -1.152,4.5121 -2.304,6.7681 -3.4559,6.768 -1.2481,10e-5 -1.8721,0.9121 -1.8721,2.736 0,2.2081 -2.88,5.952 -8.64,11.232 -5.76,5.28 -10.272,8.256 -13.536,8.928 -3.936,1.056 -6.192,2.112 -6.768,3.168 -0.672,1.248 -3.792,1.872 -9.36,1.872 l -8.496,0 1.44,25.92 c 0.384,6.624 0.576,12.432 0.576,17.424 0,6.144 -0.528,9.984 -1.5839,11.52 -1.6321,1.92 -3.0241,2.88 -4.1761,2.88 -2.112,0 -3.456,-2.16 -4.032,-6.48 -0.96,-7.392 -2.16,-21.408 -3.6,-42.048 -1.44,-20.64 -2.16,-34.5119 -2.16,-41.616 l 0,-15.408 -4.32,3.024 c -1.92,1.3441 -3.6,2.0161 -5.04,2.016 -0.576,10e-5 -1.2,-0.3359 -1.872,-1.008 -0.576,-0.6719 -0.864,-1.4879 -0.864,-2.448 0,-2.6879 2.736,-6.9119 8.2081,-12.672 3.0719,-3.2639 5.3759,-5.4239 6.9119,-6.48 1.536,-1.0559 3.12,-1.5839 4.752,-1.584 0.48,10e-5 1.296,0.096 2.448,0.288 1.152,0.096 2.448,0.1441 3.8881,0.144 m 31.3919,10.8 c -5.088,-1.1519 -8.592,-1.7279 -10.512,-1.728 -1.92,1e-4 -6.336,0.7201 -13.248,2.16 -5.088,1.0561 -8.256,2.3521 -9.504,3.888 -1.248,1.5361 -1.872,5.0401 -1.872,10.512 0,5.5681 0.336,11.6161 1.008,18.144 0.672,6.528 1.392,10.224 2.16,11.088 0.384,0.48 1.488,0.72 3.312,0.72 3.072,0 7.2,-0.672 12.384,-2.016 5.184,-1.44 9.36,-3.024 12.528,-4.752 1.92,-1.056 3.552,-2.3039 4.896,-3.744 1.344,-1.5359 2.064,-2.8799 2.16,-4.032 0.288,-2.1119 1.968,-5.1839 5.04,-9.216 3.168,-4.1279 4.752,-7.4879 4.752,-10.08 0,-5.3759 -4.368,-9.0239 -13.104,-10.944"
         style="font-variant:normal;font-stretch:normal;font-family:Purisa;-inkscape-font-specification:Purisa"
         id="path3277-4" />
      <path
         inkscape:connector-curvature="0"
         d="m -1342.6835,1666.6502 c 0,-2.8799 0.384,-5.2799 1.152,-7.2 0.864,-2.0159 1.68,-3.3119 2.448,-3.888 0.768,-0.6719 1.44,-1.0079 2.016,-1.008 1.056,10e-5 2.784,-0.6239 5.184,-1.872 2.4,-1.3439 4.992,-2.7839 7.776,-4.32 2.88,-1.5359 6.912,-2.9279 12.096,-4.176 5.184,-1.3439 10.7039,-2.0159 16.56,-2.016 8.7359,10e-5 13.1039,1.3921 13.104,4.176 -10e-5,1.3441 -4.6081,2.8321 -13.824,4.464 -7.488,1.2481 -14.544,3.0721 -21.168,5.472 -6.624,2.3041 -11.088,4.5601 -13.392,6.768 -1.44,1.4401 -2.16,3.5041 -2.16,6.192 0,0.5761 0.048,1.7281 0.144,3.456 0.192,1.6321 0.48,4.2721 0.864,7.92 0.384,3.6481 0.72,7.2481 1.008,10.8 0.576,7.968 1.392,11.952 2.448,11.952 0.288,0 0.624,-0.144 1.008,-0.432 1.632,-0.96 7.104,-2.544 16.416,-4.752 9.4079,-2.208 15.3119,-3.312 17.712,-3.312 2.8799,0 4.3199,1.2 4.32,3.6 -10e-5,1.728 -1.6321,3.264 -4.896,4.608 -3.2641,1.344 -9.792,3.264 -19.584,5.76 -7.2,1.728 -11.664,3.024 -13.392,3.888 -1.632,0.864 -2.448,2.208 -2.448,4.032 0,0.096 0.096,6.096 0.288,18 l 0.432,12.384 7.344,0 c 4.32,0 9.792,-0.864 16.416,-2.592 6.7199,-1.824 12.2879,-3.936 16.704,-6.336 2.9759,-1.632 4.9919,-2.448 6.048,-2.448 0.9599,0 1.9199,0.576 2.88,1.728 0.9599,1.056 1.4399,2.112 1.44,3.168 -1e-4,3.36 -5.2321,7.104 -15.696,11.232 -10.368,4.032 -20.544,6.048 -30.528,6.048 -6.048,0 -9.696,-0.912 -10.944,-2.736 -1.056,-1.248 -1.872,-5.04 -2.448,-11.376 -0.576,-6.432 -1.248,-15.984 -2.016,-28.656 -0.672,-12.768 -1.44,-23.664 -2.304,-32.688 -0.672,-7.0079 -1.008,-12.2879 -1.008,-15.84"
         style="font-variant:normal;font-stretch:normal;font-family:Purisa;-inkscape-font-specification:Purisa"
         id="path3279-5" />
      <path
         inkscape:connector-curvature="0"
         d="m -1244.4575,1711.1462 c 0,4.896 0.192,9.168 0.576,12.816 0.384,3.648 0.576,5.952 0.576,6.912 0,4.896 -0.672,9.6 -2.016,14.112 -1.248,4.416 -2.64,6.624 -4.176,6.624 -2.304,-0.096 -3.936,-0.528 -4.896,-1.296 -0.864,-0.768 -1.536,-2.688 -2.016,-5.76 -0.48,-3.168 -0.72,-8.304 -0.72,-15.408 0,-12.288 0.336,-28.704 1.008,-49.248 0.672,-20.6399 1.296,-31.6799 1.872,-33.12 1.056,-2.3999 3.024,-3.5999 5.904,-3.6 1.632,10e-5 3.264,0.5281 4.896,1.584 1.248,0.7681 4.8,5.3761 10.656,13.824 5.952,8.3521 8.928,13.0081 8.928,13.968 0,0.5761 0.864,2.2081 2.592,4.896 1.728,2.5921 4.7039,7.5361 8.928,14.832 4.3199,7.2 8.7839,15.36 13.392,24.48 9.9839,19.68 16.5119,29.52 19.584,29.52 0.3839,0 0.7199,-0.096 1.008,-0.288 0.2879,-0.192 0.6719,-0.96 1.152,-2.304 0.4799,-1.344 0.9119,-3.216 1.296,-5.616 0.3839,-2.496 0.7679,-6.192 1.152,-11.088 0.4799,-4.992 0.9119,-10.992 1.296,-18 1.7279,-27.3599 3.1679,-43.3919 4.32,-48.096 0.9599,-4.2239 2.5919,-6.6239 4.896,-7.2 0.5759,-0.096 1.2959,-0.1439 2.16,-0.144 1.6319,10e-5 2.7839,0.6241 3.456,1.872 0.7679,1.2481 1.1519,3.4081 1.152,6.48 -10e-5,2.1121 -0.2401,5.4721 -0.72,10.08 -0.4801,4.6081 -1.2481,11.7601 -2.304,21.456 -0.9601,9.696 -1.8721,20.016 -2.736,30.96 -1.0561,14.592 -2.2561,24.096 -3.6,28.512 -1.2481,4.32 -3.6481,6.48 -7.2,6.48 -6.2401,0 -11.8561,-2.496 -16.848,-7.488 -4.9921,-4.992 -10.1281,-12.864 -15.408,-23.616 -2.5921,-5.184 -4.8961,-9.6 -6.912,-13.248 -2.0161,-3.744 -3.3601,-6.144 -4.032,-7.2 -0.6721,-1.152 -1.2481,-2.256 -1.728,-3.312 -0.48,-1.152 -0.96,-2.64 -1.44,-4.464 -0.672,-2.976 -4.08,-9.168 -10.224,-18.576 -6.144,-9.5039 -9.264,-14.3999 -9.36,-14.688 -0.096,-0.1919 -0.24,-0.2879 -0.432,-0.288 -0.96,10e-5 -1.872,5.0881 -2.736,15.264 -0.864,10.08 -1.296,19.872 -1.296,29.376"
         style="font-variant:normal;font-stretch:normal;font-family:Purisa;-inkscape-font-specification:Purisa"
         id="path3281-1" />
      <path
         inkscape:connector-curvature="0"
         d="m -1047.0898,1666.6502 c 0,-2.8799 0.384,-5.2799 1.152,-7.2 0.864,-2.0159 1.68,-3.3119 2.448,-3.888 0.768,-0.6719 1.44,-1.0079 2.016,-1.008 1.056,10e-5 2.784,-0.6239 5.184,-1.872 2.4,-1.3439 4.992,-2.7839 7.776,-4.32 2.88,-1.5359 6.912,-2.9279 12.0961,-4.176 5.1839,-1.3439 10.7039,-2.0159 16.55995,-2.016 8.73593,10e-5 13.10393,1.3921 13.104,4.176 -7e-5,1.3441 -4.60807,2.8321 -13.82405,4.464 -7.488,1.2481 -14.544,3.0721 -21.168,5.472 -6.624,2.3041 -11.088,4.5601 -13.392,6.768 -1.44,1.4401 -2.16,3.5041 -2.16,6.192 0,0.5761 0.048,1.7281 0.144,3.456 0.192,1.6321 0.48,4.2721 0.864,7.92 0.384,3.6481 0.72,7.2481 1.008,10.8 0.576,7.968 1.392,11.952 2.448,11.952 0.288,0 0.624,-0.144 1.008,-0.432 1.632,-0.96 7.104,-2.544 16.416,-4.752 9.408,-2.208 15.312,-3.312 17.71205,-3.312 2.87994,0 4.31994,1.2 4.32,3.6 -6e-5,1.728 -1.63206,3.264 -4.896,4.608 -3.26405,1.344 -9.79205,3.264 -19.58395,5.76 -7.2001,1.728 -11.6641,3.024 -13.3921,3.888 -1.632,0.864 -2.448,2.208 -2.448,4.032 0,0.096 0.096,6.096 0.288,18 l 0.432,12.384 7.344,0 c 4.32,0 9.792,-0.864 16.416,-2.592 6.72,-1.824 12.28799,-3.936 16.70405,-6.336 2.97593,-1.632 4.99193,-2.448 6.048,-2.448 0.95993,0 1.91993,0.576 2.88,1.728 0.95993,1.056 1.43993,2.112 1.44,3.168 -7e-5,3.36 -5.23207,7.104 -15.696,11.232 -10.36805,4.032 -20.54405,6.048 -30.52805,6.048 -6.048,0 -9.696,-0.912 -10.944,-2.736 -1.056,-1.248 -1.872,-5.04 -2.4479,-11.376 -0.5761,-6.432 -1.2481,-15.984 -2.0161,-28.656 -0.672,-12.768 -1.44,-23.664 -2.304,-32.688 -0.672,-7.0079 -1.008,-12.2879 -1.008,-15.84"
         style="font-variant:normal;font-stretch:normal;font-family:Purisa;-inkscape-font-specification:Purisa"
         id="path3283-1" />
      <path
         inkscape:connector-curvature="0"
         d="m -957.21575,1766.5862 c -1.24801,0 -2.25601,-0.864 -3.024,-2.592 -0.67201,-1.728 -1.24801,-5.472 -1.728,-11.232 -0.48001,-5.76 -0.81601,-13.488 -1.008,-23.184 -0.096,-9.792 -0.14401,-23.28 -0.144,-40.464 -1e-5,-29.4719 0.57599,-44.9279 1.728,-46.368 1.34399,-1.8239 3.11998,-2.7359 5.328,-2.736 1.24798,10e-5 2.44798,1.2481 3.6,3.744 1.24798,2.4961 2.83198,7.0561 4.752,13.68 2.87997,10.4641 6.19197,19.9201 9.936,28.368 3.83996,8.352 6.57596,12.528 8.208,12.528 1.63195,0 5.08795,-4.464 10.368,-13.392 5.27994,-9.0239 11.32793,-20.7839 18.144,-35.28 1.24793,-2.6879 2.87992,-4.8479 4.896,-6.48 2.01592,-1.6319 3.98392,-2.4479 5.904,-2.448 1.34392,10e-5 2.39991,0.3841 3.168,1.152 2.11191,1.9201 3.50391,6.2401 4.176,12.96 0.67191,6.6241 1.10391,20.6401 1.296,42.048 0.0959,12.96 0.38391,23.52 0.864,31.68 0.47991,8.16 0.95991,13.344 1.44,15.552 0.57591,2.112 1.0559,3.888 1.44,5.328 0.3839,1.44 0.5759,2.832 0.576,4.176 -10e-5,2.976 -1.34409,4.464 -4.032,4.464 -1.53609,0 -3.02409,-0.48 -4.464,-1.44 -1.44009,-0.96 -2.44809,-2.208 -3.024,-3.744 -0.57608,-1.536 -1.15208,-10.032 -1.728,-25.488 -0.57608,-15.456 -1.15208,-30.432 -1.728,-44.928 -0.57608,-14.4959 -1.20008,-21.7439 -1.872,-21.744 -0.86408,10e-5 -2.73608,3.2161 -5.616,9.648 -3.45607,7.8721 -7.92007,16.5601 -13.392,26.064 -2.01606,3.552 -5.08806,6.768 -9.216,9.648 -4.03205,2.784 -7.58404,4.176 -10.656,4.176 -0.76804,0 -2.16004,-1.2 -4.176,-3.6 -2.01603,-2.496 -4.03203,-5.472 -6.048,-8.928 l -7.344,-12.528 0,37.152 c -0.096,18.24 -0.57602,30.144 -1.44,35.712 -0.76802,5.664 -2.49602,8.496 -5.184,8.496"
         style="font-variant:normal;font-stretch:normal;font-family:Purisa;-inkscape-font-specification:Purisa"
         id="path3285-2" />
      <path
         inkscape:connector-curvature="0"
         d="m -781.31075,1688.2502 c -9e-5,7.776 -1.00809,15.84 -3.024,24.192 -1.92008,8.256 -4.27208,15.36 -7.056,21.312 -2.68807,5.952 -5.52007,10.896 -8.496,14.832 -2.88007,3.84 -5.28006,5.76 -7.2,5.76 -1.53606,0 -2.54406,0.768 -3.024,2.304 -0.28806,0.864 -2.40006,1.632 -6.336,2.304 -3.84005,0.768 -7.87204,1.152 -12.096,1.152 -2.59204,0 -4.65604,-0.336 -6.192,-1.008 -1.53603,-0.576 -3.55203,-1.824 -6.048,-3.744 -5.08802,-4.032 -9.55202,-10.32 -13.392,-18.864 -3.84001,-8.64 -5.76001,-16.752 -5.76,-24.336 -10e-6,-8.736 1.96799,-17.424 5.904,-26.064 3.93598,-8.7359 8.92798,-15.2639 14.976,-19.584 5.75996,-4.0319 9.59996,-6.0479 11.52,-6.048 1.24796,10e-5 3.21596,-1.2959 5.904,-3.888 2.68795,-2.5919 4.84795,-3.8879 6.48,-3.888 1.82394,10e-5 3.31194,-0.6239 4.464,-1.872 1.24794,-1.3439 3.02394,-2.0159 5.328,-2.016 7.19993,10e-5 13.00792,3.6001 17.424,10.8 4.41591,7.1041 6.62391,16.6561 6.624,28.656 m -7.92,-2.736 c -8e-5,-2.7839 -1.39208,-6.9119 -4.176,-12.384 -2.68807,-5.4719 -4.56007,-8.5439 -5.616,-9.216 -1.15207,-0.7679 -2.97607,-1.1519 -5.472,-1.152 -4.22406,1e-4 -9.69605,1.1041 -16.416,3.312 -14.59203,4.6081 -23.52002,16.7521 -26.784,36.432 -0.96002,5.952 -1.44002,9.84 -1.44,11.664 -2e-5,2.784 1.15198,7.584 3.456,14.4 5.18397,14.496 12.23996,21.744 21.168,21.744 2.49595,0 5.18395,-0.576 8.064,-1.728 3.35994,-1.248 7.43994,-5.424 12.24,-12.528 4.89593,-7.2 7.72793,-13.152 8.496,-17.856 0.47993,-3.936 1.67993,-9.888 3.6,-17.856 1.91992,-7.968 2.87992,-12.9119 2.88,-14.832"
         style="font-variant:normal;font-stretch:normal;font-family:Purisa;-inkscape-font-specification:Purisa"
         id="path3287-5" />
      <path
         inkscape:connector-curvature="0"
         d="m -742.676,1667.0822 c -3.16803,10e-5 -6.48003,0.3841 -9.936,1.152 -3.45602,0.7681 -5.71202,1.1521 -6.768,1.152 -2.40001,10e-5 -4.46401,-0.4319 -6.192,-1.296 -1.63201,-0.8639 -2.44801,-1.9679 -2.448,-3.312 -10e-6,-1.6319 1.05599,-2.7359 3.168,-3.312 2.20799,-0.6719 7.96798,-1.7279 17.28,-3.168 18.91195,-2.8799 37.00794,-5.9999 54.288,-9.36 10.65591,-2.0159 17.5679,-3.0239 20.736,-3.024 2.9759,10e-5 5.99989,0.6241 9.072,1.872 3.07189,1.2481 4.60788,2.6401 4.608,4.176 -1.2e-4,1.4401 -1.24811,2.6881 -3.744,3.744 -2.49611,0.9601 -5.80811,1.4401 -9.936,1.44 -6.4321,1e-4 -13.29609,0.8641 -20.592,2.592 l -11.088,2.592 2.16,12.096 c 1.05593,7.4881 2.30393,21.84 3.744,43.056 1.53592,21.12 2.44792,32.928 2.736,35.424 0.28792,2.496 0.43192,4.368 0.432,5.616 -8e-5,2.976 -1.29608,4.464 -3.888,4.464 -2.49607,0 -4.36807,-3.12 -5.616,-9.36 -1.15207,-6.24 -2.25607,-18.48 -3.312,-36.72 -1.92006,-31.1039 -4.41606,-48.2879 -7.488,-51.552 -0.76806,-0.7679 -2.01606,-1.1519 -3.744,-1.152 -0.76805,10e-5 -4.08005,0.4801 -9.936,1.44 -5.76004,0.9601 -10.27204,1.4401 -13.536,1.44"
         style="font-variant:normal;font-stretch:normal;font-family:Purisa;-inkscape-font-specification:Purisa"
         id="path3289-9" />
      <path
         inkscape:connector-curvature="0"
         d="m -598.5275,1739.5142 c 0.0959,0 0.38394,-0.144 0.864,-0.432 0.47994,-0.384 1.10394,-0.768 1.872,-1.152 0.86394,-0.384 1.77594,-0.576 2.736,-0.576 1.53594,0 2.83194,0.432 3.888,1.296 1.15193,0.768 1.72793,1.824 1.728,3.168 -7e-5,2.112 -1.58407,4.128 -4.752,6.048 -3.16806,1.824 -9.16805,4.416 -18,7.776 -5.76004,2.208 -9.88803,3.312 -12.384,3.312 -1.53603,0 -3.60003,-0.384 -6.192,-1.152 -2.78402,-0.768 -4.70402,-1.584 -5.76,-2.448 -1.05602,-0.864 -1.58402,-1.968 -1.584,-3.312 -2e-5,-1.44 0.38398,-2.4 1.152,-2.88 0.76798,-0.48 2.25598,-0.72 4.464,-0.72 3.35997,0 7.63197,-1.104 12.816,-3.312 l 7.2,-3.312 -1.296,-26.928 c -0.86404,-17.952 -1.29604,-32.1599 -1.296,-42.624 l 0,-15.408 -4.176,1.152 c -4.70403,1.3441 -9.26403,2.0161 -13.68,2.016 -5.56802,10e-5 -8.35202,-1.0559 -8.352,-3.168 -2e-5,-1.2479 1.67998,-2.5919 5.04,-4.032 3.35998,-1.5359 7.63197,-3.1199 12.816,-4.752 5.27996,-1.6319 8.63996,-2.7359 10.08,-3.312 1.05596,-0.4799 4.17595,-0.7199 9.36,-0.72 6.62394,10e-5 10.84794,0.3361 12.672,1.008 0.67193,0.2881 1.29593,0.9121 1.872,1.872 0.57593,0.9601 0.86393,1.8721 0.864,2.736 -7e-5,1.7281 -0.81607,3.0241 -2.448,3.888 -1.63206,0.7681 -4.80006,1.4401 -9.504,2.016 l -4.32,0.576 0.288,25.056 c 0.67195,38.88 2.01595,58.32 4.032,58.32"
         style="font-variant:normal;font-stretch:normal;font-family:Purisa;-inkscape-font-specification:Purisa"
         id="path3291-9" />
      <path
         inkscape:connector-curvature="0"
         d="m -476.28725,1712.1542 c -9e-5,1.152 -0.81609,3.312 -2.448,6.48 -1.53609,3.168 -3.84009,6.816 -6.912,10.944 -2.97608,4.128 -6.33608,8.112 -10.08,11.952 -3.64807,3.744 -7.92007,6.912 -12.816,9.504 -4.89606,2.592 -9.69605,3.888 -14.4,3.888 -11.61604,0 -21.02403,-7.392 -28.224,-22.176 -0.96002,-1.92 -1.44002,-8.448 -1.44,-19.584 -2e-5,-20.064 0.95998,-33.4559 2.88,-40.176 2.39998,-8.8319 8.30397,-16.5599 17.712,-23.184 9.40795,-6.7199 18.33594,-10.0799 26.784,-10.08 4.41593,10e-5 8.44793,1.4401 12.096,4.32 3.74392,2.7841 5.61592,5.9041 5.616,9.36 -8e-5,1.2481 -0.72008,1.8721 -2.16,1.872 -1.05608,10e-5 -2.16008,-0.3359 -3.312,-1.008 -1.15208,-0.6719 -2.01608,-1.5359 -2.592,-2.592 -0.96007,-2.1119 -2.44807,-3.1679 -4.464,-3.168 -4.99206,10e-5 -11.04006,1.6801 -18.144,5.04 -7.00804,3.3601 -12.38404,7.1041 -16.128,11.232 -3.16803,3.4561 -5.56803,8.7841 -7.2,15.984 -1.63203,7.2001 -2.44803,18.096 -2.448,32.688 -3e-5,6.912 0.91197,12.528 2.736,16.848 1.82397,4.32 4.46397,7.824 7.92,10.512 3.45596,2.688 7.00796,4.032 10.656,4.032 2.49595,0 5.99995,-1.056 10.512,-3.168 4.51194,-2.112 7.67993,-4.176 9.504,-6.192 l 7.344,-7.344 c 2.30392,-2.208 4.70392,-5.04 7.2,-8.496 2.59192,-3.552 4.65591,-6.384 6.192,-8.496 1.63191,-2.112 2.97591,-3.168 4.032,-3.168 1.05591,0 1.58391,1.392 1.584,4.176"
         style="font-variant:normal;font-stretch:normal;font-family:Purisa;-inkscape-font-specification:Purisa"
         id="path3293-5" />
      <path
         inkscape:connector-curvature="0"
         d="m -377.99825,1688.2502 c -9e-5,7.776 -1.00809,15.84 -3.024,24.192 -1.92008,8.256 -4.27208,15.36 -7.056,21.312 -2.68807,5.952 -5.52007,10.896 -8.496,14.832 -2.88007,3.84 -5.28006,5.76 -7.2,5.76 -1.53606,0 -2.54406,0.768 -3.024,2.304 -0.28806,0.864 -2.40006,1.632 -6.336,2.304 -3.84005,0.768 -7.87204,1.152 -12.096,1.152 -2.59204,0 -4.65604,-0.336 -6.192,-1.008 -1.53603,-0.576 -3.55203,-1.824 -6.048,-3.744 -5.08802,-4.032 -9.55202,-10.32 -13.392,-18.864 -3.84001,-8.64 -5.76001,-16.752 -5.76,-24.336 -10e-6,-8.736 1.96799,-17.424 5.904,-26.064 3.93598,-8.7359 8.92798,-15.2639 14.976,-19.584 5.75996,-4.0319 9.59996,-6.0479 11.52,-6.048 1.24796,10e-5 3.21596,-1.2959 5.904,-3.888 2.68795,-2.5919 4.84795,-3.8879 6.48,-3.888 1.82394,10e-5 3.31194,-0.6239 4.464,-1.872 1.24794,-1.3439 3.02394,-2.0159 5.328,-2.016 7.19993,10e-5 13.00792,3.6001 17.424,10.8 4.41591,7.1041 6.62391,16.6561 6.624,28.656 m -7.92,-2.736 c -8e-5,-2.7839 -1.39208,-6.9119 -4.176,-12.384 -2.68807,-5.4719 -4.56007,-8.5439 -5.616,-9.216 -1.15207,-0.7679 -2.97607,-1.1519 -5.472,-1.152 -4.22406,1e-4 -9.69605,1.1041 -16.416,3.312 -14.59203,4.6081 -23.52002,16.7521 -26.784,36.432 -0.96002,5.952 -1.44002,9.84 -1.44,11.664 -2e-5,2.784 1.15198,7.584 3.456,14.4 5.18397,14.496 12.23996,21.744 21.168,21.744 2.49595,0 5.18395,-0.576 8.064,-1.728 3.35994,-1.248 7.43994,-5.424 12.24,-12.528 4.89593,-7.2 7.72793,-13.152 8.496,-17.856 0.47993,-3.936 1.67993,-9.888 3.6,-17.856 1.91992,-7.968 2.87992,-12.9119 2.88,-14.832"
         style="font-variant:normal;font-stretch:normal;font-family:Purisa;-inkscape-font-specification:Purisa"
         id="path3295-1" />
      <path
         inkscape:connector-curvature="0"
         d="m -346.7075,1711.1462 c -2e-5,4.896 0.19198,9.168 0.576,12.816 0.38397,3.648 0.57597,5.952 0.576,6.912 -3e-5,4.896 -0.67202,9.6 -2.016,14.112 -1.24802,4.416 -2.64002,6.624 -4.176,6.624 -2.30402,-0.096 -3.93602,-0.528 -4.896,-1.296 -0.86401,-0.768 -1.53601,-2.688 -2.016,-5.76 -0.48001,-3.168 -0.72001,-8.304 -0.72,-15.408 -10e-6,-12.288 0.33599,-28.704 1.008,-49.248 0.67199,-20.6399 1.29599,-31.6799 1.872,-33.12 1.05598,-2.3999 3.02398,-3.5999 5.904,-3.6 1.63198,10e-5 3.26398,0.5281 4.896,1.584 1.24797,0.7681 4.79997,5.3761 10.656,13.824 5.95196,8.3521 8.92795,13.0081 8.928,13.968 -5e-5,0.5761 0.86395,2.2081 2.592,4.896 1.72795,2.5921 4.70395,7.5361 8.928,14.832 4.31994,7.2 8.78393,15.36 13.392,24.48 9.98392,19.68 16.51191,29.52 19.584,29.52 0.38391,0 0.71991,-0.096 1.008,-0.288 0.28791,-0.192 0.67191,-0.96 1.152,-2.304 0.47991,-1.344 0.91191,-3.216 1.296,-5.616 0.38391,-2.496 0.76791,-6.192 1.152,-11.088 0.47991,-4.992 0.9119,-10.992 1.296,-18 1.7279,-27.3599 3.1679,-43.3919 4.32,-48.096 0.9599,-4.2239 2.5919,-6.6239 4.896,-7.2 0.57589,-0.096 1.29589,-0.1439 2.16,-0.144 1.63189,10e-5 2.78389,0.6241 3.456,1.872 0.76789,1.2481 1.15189,3.4081 1.152,6.48 -1.1e-4,2.1121 -0.24011,5.4721 -0.72,10.08 -0.48011,4.6081 -1.24811,11.7601 -2.304,21.456 -0.96011,9.696 -1.87211,20.016 -2.736,30.96 -1.0561,14.592 -2.2561,24.096 -3.6,28.512 -1.2481,4.32 -3.6481,6.48 -7.2,6.48 -6.24009,0 -11.85608,-2.496 -16.848,-7.488 -4.99207,-4.992 -10.12807,-12.864 -15.408,-23.616 -2.59206,-5.184 -4.89606,-9.6 -6.912,-13.248 -2.01605,-3.744 -3.36005,-6.144 -4.032,-7.2 -0.67205,-1.152 -1.24805,-2.256 -1.728,-3.312 -0.48005,-1.152 -0.96005,-2.64 -1.44,-4.464 -0.67205,-2.976 -4.08004,-9.168 -10.224,-18.576 -6.14403,-9.5039 -9.26403,-14.3999 -9.36,-14.688 -0.096,-0.1919 -0.24003,-0.2879 -0.432,-0.288 -0.96003,10e-5 -1.87203,5.0881 -2.736,15.264 -0.86402,10.08 -1.29602,19.872 -1.296,29.376"
         style="font-variant:normal;font-stretch:normal;font-family:Purisa;-inkscape-font-specification:Purisa"
         id="path3297-1" />
      <path
         inkscape:connector-curvature="0"
         d="m -948.22362,1885.3862 c -10e-5,-2.88 1.96789,-14.16 5.904,-33.84 3.93589,-19.6799 6.33588,-29.5199 7.19999,-29.52 2.49589,10e-5 4.27189,0.5281 5.32801,1.584 1.05588,0.9601 1.58388,2.8321 1.584,5.616 -1.2e-4,3.1681 -1.15212,10.5121 -3.45601,22.032 l -7.48799,37.44 c -1.34411,6.816 -2.59211,12.672 -3.744,17.568 -1.05611,4.8 -1.82411,7.968 -2.304,9.504 -0.38411,1.44 -0.67211,2.784 -0.864,4.032 -0.19211,1.248 -0.28811,2.688 -0.28801,4.32 -10e-5,2.304 -0.4801,4.08 -1.43999,5.328 -0.8641,1.248 -2.0161,1.872 -3.456,1.872 -2.1121,0 -3.9361,-1.056 -5.472,-3.168 -1.53609,-2.208 -2.78409,-4.368 -3.744,-6.48 -0.96009,-2.208 -1.82409,-3.312 -2.592,-3.312 -0.96009,0 -1.87209,-2.016 -2.736,-6.048 -0.96009,-4.512 -3.26408,-10.464 -6.912,-17.856 -3.64808,-7.392 -6.72007,-12.24 -9.216,-14.544 l -4.32001,-4.176 -4.31999,10.8 c -5.56806,14.304 -10.60808,28.608 -15.11998,42.912 -1.9201,5.952 -3.2641,9.6 -4.032,10.944 -0.7681,1.344 -2.1601,2.016 -4.176,2.016 -1.7281,0 -3.0241,-0.576 -3.888,-1.728 -0.7681,-1.056 -1.5361,-3.408 -2.304,-7.056 -2.4961,-11.136 -4.992,-23.184 -7.488,-36.144 -2.4,-13.056 -4.272,-22.176 -5.616,-27.36 -1.344,-4.6079 -2.016,-8.3999 -2.016,-11.376 0,-1.8239 -0.24,-3.1679 -0.72,-4.032 -0.384,-0.9599 -0.864,-1.6319 -1.44,-2.016 -0.48,-0.4799 -0.96,-1.9199 -1.44,-4.32 -0.384,-2.3999 -0.576,-5.8079 -0.576,-10.224 0,-4.0319 0.816,-6.0479 2.448,-6.048 2.496,10e-5 5.04,4.1281 7.632,12.384 2.592,8.2561 6.096,23.4241 10.512,45.504 3.2639,16.032 5.4719,24.048 6.624,24.048 0.6719,0 2.2079,-3.36 4.608,-10.08 2.3999,-6.816 4.9439,-14.16 7.63198,-22.032 2.78394,-7.968 4.65594,-12.864 5.616,-14.688 1.53594,-2.9759 3.69594,-4.4639 6.48,-4.464 4.41593,10e-5 9.35993,3.4561 14.832,10.368 5.47191,6.912 9.98391,15.6 13.53599,26.064 2.01591,6.24 3.64791,9.36 4.89601,9.36 1.0559,0 2.3519,-2.928 3.888,-8.784 1.6319,-5.856 2.4479,-10.656 2.448,-14.4"
         style="font-variant:normal;font-stretch:normal;font-family:Purisa;-inkscape-font-specification:Purisa"
         id="path3299-2" />
      <path
         inkscape:connector-curvature="0"
         d="m -911.94912,1846.6502 c -10e-6,-2.8799 0.38399,-5.2799 1.15199,-7.2 0.86399,-2.0159 1.67999,-3.3119 2.44801,-3.888 0.76798,-0.6719 1.43998,-1.0079 2.016,-1.008 1.05598,10e-5 2.78398,-0.6239 5.18399,-1.872 2.39998,-1.3439 4.99198,-2.7839 7.77601,-4.32 2.87996,-1.5359 6.91196,-2.9279 12.096,-4.176 5.18395,-1.3439 10.70394,-2.0159 16.56,-2.016 8.73593,10e-5 13.10393,1.3921 13.104,4.176 -7e-5,1.3441 -4.60807,2.8321 -13.82401,4.464 -7.48804,1.2481 -14.54404,3.0721 -21.168,5.472 -6.62402,2.3041 -11.08802,4.5601 -13.39199,6.768 -1.44003,1.4401 -2.16002,3.5041 -2.16,6.192 -2e-5,0.5761 0.048,1.7281 0.144,3.456 0.19198,1.6321 0.47998,4.2721 0.86399,7.92 0.38398,3.6481 0.71998,7.2481 1.00801,10.8 0.57597,7.968 1.39197,11.952 2.448,11.952 0.28797,0 0.62397,-0.144 1.008,-0.432 1.63197,-0.96 7.10396,-2.544 16.41599,-4.752 9.40795,-2.208 15.31195,-3.312 17.712,-3.312 2.87994,0 4.31994,1.2 4.32001,3.6 -7e-5,1.728 -1.63207,3.264 -4.896,4.608 -3.26406,1.344 -9.79205,3.264 -19.584,5.76 -7.20004,1.728 -11.66403,3.024 -13.392,3.888 -1.63203,0.864 -2.44803,2.208 -2.44801,4.032 -2e-5,0.096 0.096,6.096 0.288,18 l 0.432,12.384 7.34401,0 c 4.31996,0 9.79195,-0.864 16.41599,-2.592 6.71995,-1.824 12.28795,-3.936 16.70401,-6.336 2.97593,-1.632 4.99193,-2.448 6.048,-2.448 0.95992,0 1.91992,0.576 2.88,1.728 0.95992,1.056 1.43992,2.112 1.43999,3.168 -7e-5,3.36 -5.23206,7.104 -15.696,11.232 -10.36804,4.032 -20.54403,6.048 -30.52799,6.048 -6.04803,0 -9.69602,-0.912 -10.94401,-2.736 -1.05601,-1.248 -1.87201,-5.04 -2.44799,-11.376 -0.57602,-6.432 -1.24802,-15.984 -2.016,-28.656 -0.67202,-12.768 -1.44002,-23.664 -2.30401,-32.688 -0.672,-7.0079 -1.008,-12.2879 -1.00799,-15.84"
         style="font-variant:normal;font-stretch:normal;font-family:Purisa;-inkscape-font-specification:Purisa"
         id="path3301-0" />
      <path
         inkscape:connector-curvature="0"
         d="m -790.97113,1932.9062 c -1.24804,0 -3.02404,0.432 -5.32799,1.296 -2.30404,0.768 -3.98404,1.152 -5.04,1.152 -1.24804,0 -2.30404,-0.432 -3.168,-1.296 -0.76804,-0.96 -1.44004,-2.352 -2.01601,-4.176 -0.48003,-1.92 -0.86403,-4.08 -1.15199,-6.48 -0.28804,-2.4 -0.57603,-5.376 -0.86401,-8.928 -0.19202,-3.552 -0.43202,-7.104 -0.72,-10.656 -0.19202,-3.552 -0.52802,-7.776 -1.00799,-12.672 -0.38403,-4.992 -0.86403,-9.744 -1.44001,-14.256 -1.05602,-9.5039 -1.87202,-17.8559 -2.44799,-25.056 l -1.00801,-12.96 -5.616,0 c -4.80001,10e-5 -7.20001,-1.0559 -7.19999,-3.168 -2e-5,-3.0719 7.39198,-6.5279 22.17599,-10.368 5.95197,-1.5359 14.68796,-2.3039 26.208,-2.304 4.41594,10e-5 7.34394,0.2401 8.78401,0.72 1.53593,0.3841 3.07192,1.3921 4.608,3.024 2.39992,2.7841 3.59992,5.0401 3.6,6.768 -8e-5,4.4161 -1.24808,9.1201 -3.744,14.112 -2.40007,4.9921 -4.84807,9.2161 -7.34401,12.672 -2.40006,3.4561 -3.60006,5.5201 -3.59999,6.192 -7e-5,0.5761 0.67193,0.8641 2.016,0.864 1.91993,10e-5 4.79993,1.2001 8.63999,3.6 3.93593,2.304 6.47993,4.416 7.63201,6.336 2.30391,3.744 3.45591,9.264 3.45599,16.56 -8e-5,11.424 -3.21607,21.072 -9.64799,28.944 -6.33607,7.872 -12.33607,11.808 -18,11.808 -0.96006,0 -2.20806,-0.288 -3.744,-0.864 -1.53605,-0.576 -2.88005,-0.864 -4.03201,-0.864 m 18.57601,-99.504 c -1.44007,-1.5359 -4.94407,-2.3039 -10.512,-2.304 -3.45606,1e-4 -6.62405,0.2401 -9.504,0.72 -7.10404,1.2481 -11.08804,2.1601 -11.952,2.736 -0.96004,0.6721 -1.44004,2.3521 -1.44001,5.04 l 0,2.88 c -3e-5,5.8561 0.57597,12.7201 1.72801,20.592 0.67196,5.1841 1.29596,8.544 1.872,10.08 0.57596,1.44 1.53596,2.16 2.88,2.16 2.11195,0 6.23995,-3.6 12.384,-10.8 6.23994,-7.1999 10.55993,-13.3919 12.96,-18.576 2.39993,-5.3759 3.59993,-8.4479 3.59999,-9.216 -6e-5,-0.6719 -0.67206,-1.7759 -2.01599,-3.312 m 9.216,62.496 c -8e-5,-12.576 -4.65608,-18.864 -13.968,-18.864 -2.40006,0 -4.84806,0.384 -7.344,1.152 -2.40006,0.672 -5.13605,1.728 -8.208,3.168 -2.97605,1.344 -5.04005,2.208 -6.192,2.592 -0.96004,0.384 -1.63204,0.96 -2.016,1.728 -0.28804,0.768 -0.43204,2.448 -0.432,5.04 -4e-5,2.592 0.14396,6.768 0.432,12.528 0.19196,3.456 0.33596,6.192 0.43199,8.208 0.19197,1.92 0.38397,3.84 0.576,5.76 0.28797,1.92 0.67197,3.312 1.15201,4.176 0.47996,0.864 0.95995,1.728 1.43999,2.592 0.57596,0.768 1.39196,1.296 2.44801,1.584 1.05595,0.288 2.11195,0.528 3.16799,0.72 1.15196,0.096 2.68796,0.192 4.60801,0.288 0.47994,0 1.10394,0.048 1.87199,0.144 0.76795,0 1.29595,0 1.58401,0 2.39994,0 4.22394,-0.432 5.472,-1.296 1.24793,-0.864 3.40793,-3.12 6.48,-6.768 3.26393,-3.648 5.47192,-6.864 6.624,-9.648 1.24792,-2.88 1.87192,-7.248 1.872,-13.104"
         style="font-variant:normal;font-stretch:normal;font-family:Purisa;-inkscape-font-specification:Purisa"
         id="path3303-9" />
    </g>
    <g
       id="g3459"
       transform="translate(30.817108,0)">
      <g
         transform="translate(2960,-783.99998)"
         id="g3444">
        <path
           sodipodi:type="arc"
           style="fill:#ff0000;fill-opacity:1;stroke:none"
           id="path3368"
           sodipodi:cx="-1890.6191"
           sodipodi:cy="1458.6191"
           sodipodi:rx="90.619133"
           sodipodi:ry="90.619133"
           d="m -1800,1458.6191 c 0,50.0476 -40.5716,90.6192 -90.6191,90.6192 -50.0476,0 -90.6192,-40.5716 -90.6192,-90.6192 0,-50.0475 40.5716,-90.6191 90.6192,-90.6191 50.0475,0 90.6191,40.5716 90.6191,90.6191 z"
           transform="matrix(0.99316775,0,0,0.99316775,272.76055,-48.885057)" />
        <text
           sodipodi:linespacing="125%"
           id="text30134"
           y="1452.3622"
           x="-1680"
           style="font-size:144px;font-style:normal;font-weight:normal;line-height:125%;letter-spacing:0px;word-spacing:0px;fill:#000000;fill-opacity:1;stroke:none;font-family:Sans"
           xml:space="preserve"><tspan
             y="1452.3622"
             x="-1680"
             id="tspan30136"
             sodipodi:role="line">😠</tspan></text>
      </g>
      <g
         transform="translate(2005.8296,-552.39004)"
         id="g3449">
        <path
           sodipodi:type="arc"
           style="fill:#ffff00;fill-opacity:1;stroke:none"
           id="path3368-7"
           sodipodi:cx="-1890.6191"
           sodipodi:cy="1458.6191"
           sodipodi:rx="90.619133"
           sodipodi:ry="90.619133"
           d="m -1800,1458.6191 c 0,50.0476 -40.5716,90.6192 -90.6191,90.6192 -50.0476,0 -90.6192,-40.5716 -90.6192,-90.6192 0,-50.0475 40.5716,-90.6191 90.6192,-90.6191 50.0475,0 90.6191,40.5716 90.6191,90.6191 z"
           transform="matrix(0.99316775,0,0,0.99316775,394.93095,-280.495)" />
        <text
           sodipodi:linespacing="125%"
           id="text30126"
           y="1220.7522"
           x="-1557.8296"
           style="font-size:144px;font-style:normal;font-weight:normal;line-height:125%;letter-spacing:0px;word-spacing:0px;fill:#000000;fill-opacity:1;stroke:none;font-family:Sans"
           xml:space="preserve"><tspan
             y="1220.7522"
             x="-1557.8296"
             id="tspan30128"
             sodipodi:role="line">😊</tspan></text>
      </g>
      <g
         transform="translate(2874.6667,-831.99998)"
         id="g3454">
        <path
           sodipodi:type="arc"
           style="fill:#00ffff;fill-opacity:1;stroke:none"
           id="path3368-9"
           sodipodi:cx="-1890.6191"
           sodipodi:cy="1458.6191"
           sodipodi:rx="90.619133"
           sodipodi:ry="90.619133"
           d="m -1800,1458.6191 c 0,50.0476 -40.5716,90.6192 -90.6191,90.6192 -50.0476,0 -90.6192,-40.5716 -90.6192,-90.6192 0,-50.0475 40.5716,-90.6191 90.6192,-90.6191 50.0475,0 90.6191,40.5716 90.6191,90.6191 z"
           transform="matrix(0.99316775,0,0,0.99316775,80.760552,191.11494)" />
        <text
           sodipodi:linespacing="125%"
           id="text30138"
           y="1692.3622"
           x="-1872"
           style="font-size:144px;font-style:normal;font-weight:normal;line-height:125%;letter-spacing:0px;word-spacing:0px;fill:#000000;fill-opacity:1;stroke:none;font-family:Sans"
           xml:space="preserve"><tspan
             y="1692.3622"
             x="-1872"
             id="tspan30140"
             sodipodi:role="line">😢</tspan></text>
      </g>
      <g
         transform="translate(2593.4699,-465.79906)"
         id="g3439">
        <path
           sodipodi:type="arc"
           style="fill:#00ff00;fill-opacity:1;stroke:none"
           id="path3368-1"
           sodipodi:cx="-1890.6191"
           sodipodi:cy="1458.6191"
           sodipodi:rx="90.619133"
           sodipodi:ry="90.619133"
           d="m -1800,1458.6191 c 0,50.0476 -40.5716,90.6192 -90.6191,90.6192 -50.0476,0 -90.6192,-40.5716 -90.6192,-90.6192 0,-50.0475 40.5716,-90.6191 90.6192,-90.6191 50.0475,0 90.6191,40.5716 90.6191,90.6191 z"
           transform="matrix(0.99316775,0,0,0.99316775,84.624076,-175.08598)" />
        <text
           sodipodi:linespacing="125%"
           id="text30130"
           y="1326.1613"
           x="-1868.1365"
           style="font-size:144px;font-style:normal;font-weight:normal;line-height:125%;letter-spacing:0px;word-spacing:0px;fill:#000000;fill-opacity:1;stroke:none;font-family:Sans"
           xml:space="preserve"><tspan
             y="1326.1613"
             x="-1868.1365"
             id="tspan30132"
             sodipodi:role="line">😏</tspan></text>
      </g>
    </g>
  </g>
</svg>
